<svg width="361" height="167" viewBox="0 0 361 167" fill="none" xmlns="http://www.w3.org/2000/svg">
<rect x="206.875" width="10.5548" height="10.0271" fill="#E12A5C"/>
<rect x="241.705" width="10.0271" height="10.0271" fill="#E12A5C"/>
<rect x="276.008" width="10.5548" height="10.0271" fill="#E12A5C"/>
<rect x="310.84" width="10.0271" height="10.0271" fill="#E12A5C"/>
<rect x="345.143" width="10.5548" height="10.0271" fill="#E12A5C"/>
<rect width="10.0271" height="10.0271" fill="#E12A5C"/>
<rect x="34.3027" width="10.5548" height="10.0271" fill="#E12A5C"/>
<rect x="69.1348" width="10.0271" height="10.0271" fill="#E12A5C"/>
<rect x="103.438" width="10.0271" height="10.0271" fill="#E12A5C"/>
<rect x="137.74" width="10.5548" height="10.0271" fill="#E12A5C"/>
<rect x="172.57" width="10.0271" height="10.0271" fill="#E12A5C"/>
<rect x="206.875" y="31.1367" width="10.5548" height="10.5548" fill="#E12A5C"/>
<rect x="241.705" y="31.1367" width="10.0271" height="10.5548" fill="#E12A5C"/>
<rect x="276.008" y="31.1367" width="10.5548" height="10.5548" fill="#E12A5C"/>
<rect x="310.84" y="31.1367" width="10.0271" height="10.5548" fill="#E12A5C"/>
<rect x="345.143" y="31.1367" width="10.5548" height="10.5548" fill="#E12A5C"/>
<rect y="31.1367" width="10.0271" height="10.5548" fill="#E12A5C"/>
<rect x="34.3027" y="31.1367" width="10.5548" height="10.5548" fill="#E12A5C"/>
<rect x="69.1348" y="31.1367" width="10.0271" height="10.5548" fill="#E12A5C"/>
<rect x="103.438" y="31.1367" width="10.0271" height="10.5548" fill="#E12A5C"/>
<rect x="137.74" y="31.1367" width="10.5548" height="10.5548" fill="#E12A5C"/>
<rect x="172.57" y="31.1367" width="10.0271" height="10.5548" fill="#E12A5C"/>
<rect x="206.875" y="62.801" width="10.5548" height="10.0271" fill="#E12A5C"/>
<rect x="241.705" y="62.801" width="10.0271" height="10.0271" fill="#E12A5C"/>
<rect x="276.008" y="62.801" width="10.5548" height="10.0271" fill="#E12A5C"/>
<rect x="310.84" y="62.801" width="10.0271" height="10.0271" fill="#E12A5C"/>
<rect x="345.143" y="62.801" width="10.5548" height="10.0271" fill="#E12A5C"/>
<rect y="62.801" width="10.0271" height="10.0271" fill="#E12A5C"/>
<rect x="34.3027" y="62.801" width="10.5548" height="10.0271" fill="#E12A5C"/>
<rect x="69.1348" y="62.801" width="10.0271" height="10.0271" fill="#E12A5C"/>
<rect x="103.438" y="62.801" width="10.0271" height="10.0271" fill="#E12A5C"/>
<rect x="137.74" y="62.801" width="10.5548" height="10.0271" fill="#E12A5C"/>
<rect x="172.57" y="62.801" width="10.0271" height="10.0271" fill="#E12A5C"/>
<rect x="206.875" y="93.9377" width="10.5548" height="10.0271" fill="#E12A5C"/>
<rect x="241.705" y="93.9377" width="10.0271" height="10.0271" fill="#E12A5C"/>
<rect x="276.008" y="93.9377" width="10.5548" height="10.0271" fill="#E12A5C"/>
<rect x="310.84" y="93.9377" width="10.0271" height="10.0271" fill="#E12A5C"/>
<rect x="345.143" y="93.9377" width="10.5548" height="10.0271" fill="#E12A5C"/>
<rect y="93.9377" width="10.0271" height="10.0271" fill="#E12A5C"/>
<rect x="34.3027" y="93.9377" width="10.5548" height="10.0271" fill="#E12A5C"/>
<rect x="69.1348" y="93.9377" width="10.0271" height="10.0271" fill="#E12A5C"/>
<rect x="103.438" y="93.9377" width="10.0271" height="10.0271" fill="#E12A5C"/>
<rect x="137.74" y="93.9377" width="10.5548" height="10.0271" fill="#E12A5C"/>
<rect x="172.57" y="93.9377" width="10.0271" height="10.0271" fill="#E12A5C"/>
<rect x="206.875" y="125.074" width="10.5548" height="10.5548" fill="#E12A5C"/>
<rect x="241.705" y="125.074" width="10.0271" height="10.5548" fill="#E12A5C"/>
<rect x="276.008" y="125.074" width="10.5548" height="10.5548" fill="#E12A5C"/>
<rect x="310.84" y="125.074" width="10.0271" height="10.5548" fill="#E12A5C"/>
<rect x="345.143" y="125.074" width="10.5548" height="10.5548" fill="#E12A5C"/>
<rect y="125.074" width="10.0271" height="10.5548" fill="#E12A5C"/>
<rect x="34.3027" y="125.074" width="10.5548" height="10.5548" fill="#E12A5C"/>
<rect x="69.1348" y="125.074" width="10.0271" height="10.5548" fill="#E12A5C"/>
<rect x="103.438" y="125.074" width="10.0271" height="10.5548" fill="#E12A5C"/>
<rect x="137.74" y="125.074" width="10.5548" height="10.5548" fill="#E12A5C"/>
<rect x="172.57" y="125.074" width="10.0271" height="10.5548" fill="#E12A5C"/>
<rect x="206.875" y="156.739" width="10.5548" height="10.0271" fill="#E12A5C"/>
<rect x="241.705" y="156.739" width="10.0271" height="10.0271" fill="#E12A5C"/>
<rect x="276.008" y="156.739" width="10.5548" height="10.0271" fill="#E12A5C"/>
<rect x="310.84" y="156.739" width="10.0271" height="10.0271" fill="#E12A5C"/>
<rect x="345.143" y="156.739" width="10.5548" height="10.0271" fill="#E12A5C"/>
<rect y="156.739" width="10.0271" height="10.0271" fill="#E12A5C"/>
<rect x="34.3027" y="156.739" width="10.5548" height="10.0271" fill="#E12A5C"/>
<rect x="69.1348" y="156.739" width="10.0271" height="10.0271" fill="#E12A5C"/>
<rect x="103.438" y="156.739" width="10.0271" height="10.0271" fill="#E12A5C"/>
<rect x="137.74" y="156.739" width="10.5548" height="10.0271" fill="#E12A5C"/>
<rect x="172.57" y="156.739" width="10.0271" height="10.0271" fill="#E12A5C"/>
</svg>
