<svg width="40" height="40" viewBox="0 0 40 40" fill="none" xmlns="http://www.w3.org/2000/svg">
<path fill-rule="evenodd" clip-rule="evenodd" d="M20 0C8.95431 0 0 8.95431 0 20C0 31.0457 8.95431 40 20 40C31.0457 40 40 31.0457 40 20C40 8.95431 31.0457 0 20 0ZM15.6028 9.39745C16.7406 9.34567 17.1041 9.33301 20.001 9.33301H19.9977C22.8955 9.33301 23.2577 9.34567 24.3955 9.39745C25.5311 9.44945 26.3067 9.62923 26.9867 9.89301C27.6889 10.1652 28.2822 10.5297 28.8756 11.123C29.4689 11.7159 29.8334 12.311 30.1067 13.0126C30.3689 13.6908 30.5489 14.466 30.6023 15.6015C30.6534 16.7393 30.6667 17.1029 30.6667 19.9998C30.6667 22.8967 30.6534 23.2594 30.6023 24.3972C30.5489 25.5323 30.3689 26.3076 30.1067 26.9861C29.8334 27.6874 29.4689 28.2825 28.8756 28.8754C28.2829 29.4688 27.6887 29.8341 26.9873 30.1066C26.3087 30.3703 25.5327 30.5501 24.3971 30.6021C23.2593 30.6539 22.8968 30.6666 19.9997 30.6666C17.103 30.6666 16.7397 30.6539 15.6019 30.6021C14.4665 30.5501 13.6912 30.3703 13.0125 30.1066C12.3114 29.8341 11.7163 29.4688 11.1236 28.8754C10.5305 28.2825 10.166 27.6874 9.89338 26.9859C9.62982 26.3076 9.45004 25.5325 9.39782 24.3969C9.34626 23.2592 9.33337 22.8967 9.33337 19.9998C9.33337 17.1029 9.34671 16.7391 9.3976 15.6013C9.44871 14.4662 9.62871 13.6908 9.89316 13.0124C10.1665 12.311 10.5309 11.7159 11.1243 11.123C11.7172 10.5299 12.3123 10.1655 13.0139 9.89301C13.6921 9.62923 14.4672 9.44945 15.6028 9.39745Z" fill="white"/>
<path fill-rule="evenodd" clip-rule="evenodd" d="M19.0435 11.2556C19.2293 11.2553 19.4292 11.2554 19.6449 11.2555L20.0004 11.2556C22.8484 11.2556 23.186 11.2658 24.3107 11.3169C25.3507 11.3645 25.9151 11.5383 26.2911 11.6843C26.7889 11.8776 27.1438 12.1087 27.5169 12.4821C27.8903 12.8554 28.1214 13.211 28.3151 13.7087C28.4611 14.0843 28.6352 14.6487 28.6825 15.6888C28.7336 16.8132 28.7447 17.151 28.7447 19.9977C28.7447 22.8444 28.7336 23.1822 28.6825 24.3066C28.6349 25.3466 28.4611 25.9111 28.3151 26.2866C28.1218 26.7844 27.8903 27.1389 27.5169 27.512C27.1436 27.8853 26.7891 28.1164 26.2911 28.3098C25.9156 28.4564 25.3507 28.6298 24.3107 28.6773C23.1862 28.7284 22.8484 28.7396 20.0004 28.7396C17.1521 28.7396 16.8146 28.7284 15.6901 28.6773C14.6501 28.6293 14.0857 28.4556 13.7094 28.3096C13.2117 28.1162 12.8561 27.8851 12.4828 27.5118C12.1094 27.1384 11.8783 26.7838 11.6845 26.2858C11.5385 25.9102 11.3645 25.3457 11.3172 24.3057C11.2661 23.1813 11.2559 22.8435 11.2559 19.995C11.2559 17.1465 11.2661 16.8105 11.3172 15.6861C11.3647 14.6461 11.5385 14.0816 11.6845 13.7056C11.8779 13.2078 12.1094 12.8523 12.4828 12.4789C12.8561 12.1056 13.2117 11.8745 13.7094 11.6807C14.0854 11.534 14.6501 11.3607 15.6901 11.3129C16.6741 11.2685 17.0555 11.2552 19.0435 11.2529V11.2556ZM25.6942 13.0268C24.9875 13.0268 24.4142 13.5995 24.4142 14.3064C24.4142 15.0131 24.9875 15.5864 25.6942 15.5864C26.4009 15.5864 26.9742 15.0131 26.9742 14.3064C26.9742 13.5997 26.4009 13.0264 25.6942 13.0264V13.0268ZM14.5226 20.0003C14.5226 16.9752 16.9752 14.5226 20.0002 14.5225C23.0253 14.5225 25.4774 16.9752 25.4774 20.0003C25.4774 23.0254 23.0256 25.477 20.0004 25.477C16.9753 25.477 14.5226 23.0254 14.5226 20.0003Z" fill="white"/>
<path fill-rule="evenodd" clip-rule="evenodd" d="M20.0009 16.4443C21.9645 16.4443 23.5565 18.0361 23.5565 19.9999C23.5565 21.9635 21.9645 23.5555 20.0009 23.5555C18.0371 23.5555 16.4453 21.9635 16.4453 19.9999C16.4453 18.0361 18.0371 16.4443 20.0009 16.4443V16.4443Z" fill="white"/>
</svg>
