<svg width="120" height="19" viewBox="0 0 120 19" fill="none" xmlns="http://www.w3.org/2000/svg">
<path d="M11.7812 10.1185C10.7404 10.9933 9.28202 11.4176 7.35184 11.4176H3.66305V17.8381H0V0H7.57202C9.32777 0 10.7146 0.450355 11.7555 1.37416C12.7964 2.29796 13.314 3.72409 13.314 5.64676C13.314 7.74552 12.7935 9.24382 11.7812 10.1185ZM8.95889 3.69811C8.48993 3.29971 7.84654 3.09763 7.00298 3.09763H3.66305V8.346H6.9801C7.8208 8.346 8.4642 8.12082 8.93602 7.69645C9.40498 7.27207 9.62802 6.59654 9.62802 5.67274C9.6509 4.74605 9.42786 4.0734 8.95889 3.69811Z" fill="white"/>
<path d="M20.6142 17.815H16.9512V0H20.6142V17.815Z" fill="white"/>
<path d="M27.8662 17.815H23.5854L29.2788 8.74439L23.8571 0H28.2636L31.432 5.79687L34.649 0H38.9068L33.5109 8.59427L39.2528 17.815H34.7719L31.432 11.7439L27.8662 17.815Z" fill="white"/>
<path d="M55.4606 3.14671H46.1043V6.91987H54.6914V10.0175H46.1043V14.5903H55.881V17.789H42.4927V0H55.4349V3.14671H55.4606Z" fill="white"/>
<path d="M59.7441 0H63.4329V14.6163H72.2431V17.815H59.7441V0Z" fill="white"/>
<path d="M76.8697 13.4183C77.0184 14.6683 77.5874 15.5171 78.5768 15.9905C79.0972 16.2417 79.6892 16.3658 80.3583 16.3658C81.6451 16.3658 82.5859 15.9674 83.2035 15.1418C83.8212 14.3161 84.1186 13.4183 84.1186 12.4194C84.1186 11.2214 83.7468 10.2716 83.0291 9.62204C82.2856 8.97249 81.4192 8.62317 80.4069 8.62317C79.6634 8.62317 79.02 8.77329 78.5025 9.04755C77.982 9.34778 77.5131 9.74617 77.1413 10.2456L75.2855 10.1446L76.598 0.825684H85.5083V2.92445H78.2079L77.4644 7.74556C77.8591 7.44532 78.2308 7.22014 78.6025 7.04693C79.2459 6.77268 79.9894 6.64854 80.8301 6.64854C82.4143 6.64854 83.7268 7.14797 84.8392 8.17282C85.9287 9.19766 86.472 10.4968 86.472 12.0701C86.472 13.7185 85.9773 15.1447 84.9621 16.3918C83.947 17.6418 82.3628 18.2654 80.161 18.2654C78.7741 18.2654 77.5388 17.867 76.4493 17.0673C75.3856 16.2677 74.765 15.0436 74.6421 13.4183H76.8697Z" fill="white"/>
<path d="M99.909 3.27381C100.675 4.69705 101.047 6.6457 101.047 9.14575C101.047 11.4957 100.701 13.4443 100.006 14.9917C98.9911 17.1915 97.3583 18.3145 95.0822 18.3145C93.029 18.3145 91.4935 17.4138 90.4783 15.6153C89.6376 14.117 89.2173 12.0933 89.2173 9.54414C89.2173 7.56951 89.4661 5.89511 89.9608 4.47187C90.9273 1.82459 92.6344 0.499512 95.1079 0.499512C97.3355 0.499512 98.9197 1.42332 99.909 3.27381ZM97.7558 14.8156C98.425 13.8167 98.7452 11.9431 98.7452 9.21792C98.7452 7.24329 98.4964 5.62086 98.0275 4.37083C97.5585 3.09771 96.6177 2.47126 95.2309 2.47126C93.9698 2.47126 93.029 3.07173 92.4343 4.26979C91.8395 5.46785 91.5421 7.24329 91.5421 9.59033C91.5421 11.3629 91.7394 12.763 92.1111 13.8369C92.6802 15.4854 93.6696 16.285 95.0564 16.285C96.1974 16.3168 97.0896 15.8145 97.7558 14.8156Z" fill="white"/>
<path d="M114.264 1.94869C115.007 2.94755 115.402 3.99838 115.402 5.04632H113.274C113.151 4.37079 112.951 3.82228 112.656 3.44698C112.136 2.72237 111.344 2.34708 110.306 2.34708C109.094 2.34708 108.153 2.92157 107.435 4.04745C106.717 5.17334 106.323 6.76979 106.248 8.86856C106.743 8.14395 107.361 7.59544 108.13 7.22015C108.822 6.89393 109.591 6.7467 110.432 6.7467C111.867 6.7467 113.128 7.22014 114.195 8.14684C115.259 9.07064 115.805 10.4448 115.805 12.2953C115.805 13.8687 115.31 15.2688 114.295 16.4669C113.28 17.6909 111.844 18.2914 109.963 18.2914C108.353 18.2914 106.969 17.6678 105.805 16.4438C104.641 15.2197 104.049 13.1469 104.049 10.2225C104.049 8.07466 104.298 6.25015 104.816 4.75185C105.805 1.8794 107.638 0.453278 110.286 0.453278C112.185 0.424409 113.523 0.949822 114.264 1.94869ZM112.656 15.1908C113.226 14.4172 113.497 13.5164 113.497 12.4685C113.497 11.5938 113.248 10.745 112.754 9.94537C112.259 9.1457 111.344 8.74731 110.006 8.74731C109.091 8.74731 108.273 9.04755 107.581 9.67111C106.889 10.2947 106.54 11.2214 106.54 12.4685C106.54 13.5684 106.863 14.4922 107.481 15.2428C108.124 15.9934 108.991 16.3658 110.129 16.3658C111.244 16.3398 112.087 15.9414 112.656 15.1908Z" fill="white"/>
<path d="M120 2.22027C120 2.4772 119.957 2.70815 119.866 2.9189C119.777 3.12964 119.657 3.30863 119.502 3.45874C119.351 3.60886 119.174 3.72434 118.973 3.80517C118.773 3.886 118.562 3.92931 118.341 3.92931C118.095 3.92931 117.872 3.886 117.669 3.7994C117.466 3.71279 117.292 3.59443 117.143 3.44142C116.997 3.28842 116.883 3.10943 116.8 2.89869C116.717 2.69083 116.674 2.46277 116.674 2.22027C116.674 1.96334 116.717 1.73238 116.809 1.52164C116.9 1.3109 117.017 1.13191 117.172 0.981793C117.323 0.831675 117.501 0.7162 117.704 0.635367C117.907 0.554534 118.118 0.51123 118.341 0.51123C118.562 0.51123 118.773 0.551647 118.973 0.635367C119.174 0.719086 119.351 0.834562 119.502 0.981793C119.654 1.13191 119.774 1.3109 119.866 1.52164C119.957 1.73238 120 1.96334 120 2.22027ZM119.637 2.22027C119.637 2.01241 119.602 1.82188 119.537 1.64866C119.471 1.47545 119.379 1.32533 119.262 1.2012C119.145 1.07706 119.008 0.978906 118.85 0.912508C118.693 0.843223 118.524 0.80858 118.344 0.80858C118.161 0.80858 117.99 0.843223 117.83 0.912508C117.672 0.981793 117.532 1.07706 117.415 1.2012C117.298 1.32533 117.203 1.47545 117.138 1.64866C117.072 1.82188 117.037 2.01241 117.037 2.22027C117.037 2.41658 117.069 2.59845 117.129 2.76878C117.189 2.9391 117.275 3.08922 117.389 3.21625C117.504 3.34327 117.638 3.44431 117.798 3.51937C117.958 3.59443 118.138 3.63196 118.341 3.63196C118.522 3.63196 118.69 3.59732 118.848 3.52803C119.005 3.45874 119.142 3.36348 119.259 3.23934C119.377 3.1152 119.468 2.96509 119.534 2.79476C119.605 2.62155 119.637 2.43101 119.637 2.22027ZM118.01 3.19892H117.701V1.30512H118.413C118.639 1.30512 118.81 1.34843 118.925 1.43215C119.039 1.51875 119.096 1.65733 119.096 1.84786C119.096 2.01819 119.051 2.14232 118.956 2.22316C118.862 2.3011 118.747 2.35018 118.607 2.36461L119.134 3.19604H118.785L118.301 2.38771H118.013V3.19892H118.01ZM118.353 2.125C118.41 2.125 118.464 2.12211 118.519 2.11923C118.57 2.11345 118.619 2.10191 118.656 2.0817C118.696 2.06149 118.727 2.02973 118.75 1.9922C118.776 1.95467 118.788 1.89982 118.788 1.83054C118.788 1.7728 118.773 1.72661 118.75 1.69486C118.725 1.66021 118.693 1.63423 118.653 1.61691C118.613 1.59959 118.57 1.58804 118.522 1.58227C118.473 1.57649 118.427 1.57649 118.381 1.57649H118.01V2.13078H118.353V2.125Z" fill="white"/>
</svg>
