<svg width="391" height="32" viewBox="0 0 391 32" fill="none" xmlns="http://www.w3.org/2000/svg">
<path d="M11.9974 17.1461C10.9374 18.0232 9.4523 18.4487 7.48671 18.4487H3.73025V24.8866H0V7H7.71093C9.49889 7 10.9112 7.45158 11.9712 8.37789C13.0311 9.30421 13.5582 10.7342 13.5582 12.6621C13.5582 14.7666 13.0282 16.2689 11.9974 17.1461ZM9.12325 10.7082C8.64568 10.3087 7.99048 10.1061 7.13145 10.1061H3.73025V15.3687H7.10815C7.96428 15.3687 8.61947 15.1429 9.09995 14.7174C9.57751 14.2918 9.80465 13.6145 9.80465 12.6882C9.82795 11.7589 9.60081 11.0845 9.12325 10.7082Z" fill="white"/>
<path d="M20.992 24.8634H17.2617V7H20.992V24.8634Z" fill="white"/>
<path d="M28.3768 24.8634H24.0176L29.8153 15.7682L24.2942 7H28.7816L32.0081 12.8126L35.284 7H39.62L34.1251 15.6176L39.9723 24.8634H35.4093L32.0081 18.7758L28.3768 24.8634Z" fill="white"/>
<path d="M56.4773 10.1553H46.9493V13.9387H55.694V17.0447H46.9493V21.63H56.9054V24.8374H43.2715V7H56.4511V10.1553H56.4773Z" fill="white"/>
<path d="M60.8398 7H64.5963V21.6561H73.5681V24.8634H60.8398V7Z" fill="white"/>
<path d="M78.2802 20.4545C78.4316 21.7079 79.0111 22.559 80.0186 23.0337C80.5486 23.2855 81.1514 23.41 81.8328 23.41C83.1432 23.41 84.1012 23.0105 84.7302 22.1826C85.3592 21.3547 85.662 20.4545 85.662 19.4529C85.662 18.2516 85.2835 17.2992 84.5526 16.6479C83.7955 15.9966 82.9131 15.6463 81.8823 15.6463C81.1252 15.6463 80.47 15.7968 79.9429 16.0718C79.4129 16.3729 78.9354 16.7724 78.5568 17.2732L76.6669 17.1718L78.0035 7.82764H87.0773V9.93211H79.643L78.8858 14.7663C79.2877 14.4653 79.6663 14.2395 80.0448 14.0658C80.7 13.7908 81.4571 13.6663 82.3133 13.6663C83.9265 13.6663 85.2631 14.1671 86.3959 15.1947C87.5053 16.2224 88.0586 17.525 88.0586 19.1026C88.0586 20.7555 87.5548 22.1855 86.5211 23.4361C85.4873 24.6895 83.8741 25.3147 81.6319 25.3147C80.2195 25.3147 78.9616 24.9153 77.8521 24.1134C76.7688 23.3116 76.1369 22.0842 76.0117 20.4545H78.2802Z" fill="white"/>
<path d="M101.741 10.2828C102.522 11.7099 102.9 13.6639 102.9 16.1707C102.9 18.527 102.548 20.481 101.84 22.0326C100.807 24.2383 99.1439 25.3644 96.826 25.3644C94.7352 25.3644 93.1714 24.4612 92.1377 22.6578C91.2816 21.1555 90.8535 19.1262 90.8535 16.5702C90.8535 14.5902 91.1069 12.9112 91.6106 11.4841C92.5949 8.82966 94.3333 7.50098 96.8522 7.50098C99.1206 7.50098 100.734 8.42729 101.741 10.2828ZM99.5487 21.856C100.23 20.8544 100.556 18.9757 100.556 16.2431C100.556 14.2631 100.303 12.6362 99.8253 11.3828C99.3478 10.1062 98.3897 9.47808 96.9774 9.47808C95.6932 9.47808 94.7352 10.0802 94.1295 11.2815C93.5238 12.4828 93.221 14.2631 93.221 16.6165C93.221 18.3939 93.4219 19.7978 93.8004 20.8747C94.3799 22.5276 95.3875 23.3294 96.7998 23.3294C97.9617 23.3612 98.8702 22.8576 99.5487 21.856Z" fill="white"/>
<path d="M116.361 8.95373C117.118 9.95531 117.52 11.009 117.52 12.0598H115.353C115.228 11.3824 115.024 10.8324 114.724 10.4561C114.194 9.72952 113.387 9.3532 112.33 9.3532C111.096 9.3532 110.138 9.92926 109.407 11.0582C108.676 12.1872 108.274 13.7879 108.198 15.8924C108.702 15.1658 109.331 14.6158 110.114 14.2395C110.819 13.9124 111.602 13.7648 112.459 13.7648C113.92 13.7648 115.205 14.2395 116.291 15.1687C117.374 16.095 117.93 17.4729 117.93 19.3285C117.93 20.9061 117.426 22.31 116.393 23.5114C115.359 24.7387 113.897 25.3408 111.981 25.3408C110.342 25.3408 108.932 24.7156 107.747 23.4882C106.562 22.2608 105.959 20.1824 105.959 17.25C105.959 15.0964 106.212 13.2669 106.739 11.7645C107.747 8.88426 109.614 7.45426 112.31 7.45426C114.244 7.42531 115.606 7.95215 116.361 8.95373ZM114.724 22.2319C115.304 21.4561 115.58 20.5529 115.58 19.5021C115.58 18.625 115.327 17.774 114.823 16.9722C114.319 16.1703 113.387 15.7708 112.025 15.7708C111.093 15.7708 110.26 16.0719 109.555 16.6972C108.851 17.3224 108.495 18.2516 108.495 19.5021C108.495 20.605 108.824 21.5314 109.453 22.284C110.109 23.0366 110.991 23.41 112.15 23.41C113.286 23.384 114.145 22.9845 114.724 22.2319Z" fill="white"/>
<path d="M149.594 20.1487V13.3574H147.943V11.8646H149.668V8.28027H151.467V11.8646H154.693V13.3574H151.467V20.0011C151.467 20.5998 151.541 21.1247 151.689 21.4938C151.838 21.945 151.986 22.2402 152.217 22.4617C152.44 22.6831 152.671 22.9128 152.968 23.0604C153.265 23.2081 153.496 23.2819 153.719 23.3557C153.942 23.4295 154.173 23.4295 154.396 23.4295L154.998 23.3557V24.9961C154.775 24.9961 154.544 25.07 154.247 25.07C153.868 25.07 153.496 25.07 153.199 24.9961C152.82 24.9223 152.448 24.8485 151.995 24.6188C151.541 24.3892 151.169 24.1677 150.864 23.7986C150.567 23.5034 150.262 22.9784 150.039 22.3797C149.668 21.7153 149.594 20.9689 149.594 20.1487Z" fill="white"/>
<path d="M159.957 24.8487V8.72336C159.957 8.34607 159.808 8.12462 159.429 8.12462H158.381V6.63184H160.262C160.79 6.63184 161.236 6.77947 161.467 7.00913C161.689 7.23059 161.846 7.60788 161.846 8.20664V13.7266L161.772 14.7683C162.069 14.0219 162.671 13.2755 163.571 12.603C164.47 11.9304 165.6 11.5613 166.954 11.5613C168.53 11.5613 169.66 12.0124 170.411 12.8326C171.087 13.6528 171.459 14.9241 171.459 16.6384V22.9048C171.459 23.2821 171.607 23.5035 171.987 23.5035H173.035V24.9963H171.153C170.625 24.9963 170.18 24.8487 169.949 24.619C169.726 24.3976 169.569 24.0203 169.569 23.4215V17.1551C169.569 16.5564 169.569 16.0314 169.495 15.6623C169.421 15.285 169.272 14.8421 169.115 14.4648C168.893 14.0875 168.662 13.7923 168.216 13.5708C167.836 13.3493 167.317 13.2755 166.714 13.2755C165.584 13.2755 164.61 13.6528 163.711 14.3172C162.812 14.9898 162.284 15.8838 161.987 17.0075C161.838 17.4586 161.764 18.0491 161.764 18.7217V24.9881H159.965V24.8487H159.957Z" fill="white"/>
<path d="M178.959 23.3559V13.9481C178.959 13.5708 178.81 13.3493 178.431 13.3493H177.383V11.8566H179.264C179.792 11.8566 180.238 12.0042 180.469 12.2339C180.691 12.4553 180.848 12.8326 180.848 13.4314V22.8392C180.848 23.2165 180.997 23.4379 181.376 23.4379H182.424V24.9307H180.543C180.015 24.9307 179.569 24.7831 179.338 24.5534C179.107 24.2499 178.959 23.8808 178.959 23.3559ZM178.959 8.871V6.63184H180.683V8.871H178.959Z" fill="white"/>
<path d="M188.422 24.8481V13.8737C188.422 13.4964 188.199 13.275 187.82 13.275H186.689V11.7822H188.488C189.619 11.7822 190.138 12.2333 190.138 13.2011V13.7999L190.064 14.6939H190.138C190.435 13.8737 191.038 13.2011 191.937 12.4548C192.836 11.7822 193.967 11.4131 195.32 11.4131C196.896 11.4131 198.026 11.8642 198.777 12.6844C199.454 13.5046 199.825 14.7759 199.825 16.4902V22.7566C199.825 23.1339 199.973 23.3553 200.353 23.3553H201.401V24.8481H199.52C198.992 24.8481 198.546 24.7005 198.315 24.4708C198.084 24.2412 197.936 23.8721 197.936 23.2733V17.0069C197.936 15.7356 197.787 14.8416 197.407 14.0952C197.028 13.4226 196.277 13.0535 195.155 13.0535C194.025 13.0535 193.051 13.4308 192.152 14.0952C191.252 14.7677 190.65 15.6618 190.353 16.7855C190.204 17.2366 190.13 17.8271 190.13 18.5735V24.8399H188.422V24.8481Z" fill="white"/>
<path d="M205.295 24.8487V8.72336C205.295 8.34607 205.147 8.12462 204.767 8.12462H203.637V6.63184H205.518C206.12 6.63184 206.492 6.77947 206.723 7.00913C206.945 7.23059 207.102 7.60788 207.102 8.20664V16.868H208.455C209.132 16.868 209.586 16.6466 209.957 16.1955L213.34 11.791H215.444L211.69 16.5646C211.541 16.786 211.31 17.0157 211.162 17.1633C211.013 17.311 210.865 17.3848 210.865 17.4586L210.79 17.5324V17.6062C211.013 17.7539 211.318 18.0573 211.541 18.5741L213.942 22.831C214.091 23.0524 214.165 23.2821 214.396 23.3559C214.544 23.4297 214.85 23.5035 215.147 23.5035H215.823V24.9963H214.619C213.942 24.9963 213.488 24.9225 213.191 24.7749C212.894 24.6272 212.589 24.2499 212.292 23.7332L209.66 19.0334C209.437 18.6561 208.983 18.4346 208.307 18.4346H207.102V24.9307H205.303V24.8487H205.295Z" fill="white"/>
<path d="M217.838 24.8486V22.6094H219.942V24.8486H217.838Z" fill="white"/>
<path d="M229.775 18.4266C229.775 16.4089 230.452 14.7684 231.731 13.4971C233.084 12.2258 234.66 11.5532 236.69 11.5532C237.144 11.5532 237.589 11.627 238.043 11.7009C238.571 11.7747 239.016 11.9223 239.545 12.152C240.073 12.3734 240.444 12.6031 240.823 13.046C241.203 13.4233 241.351 13.8662 241.351 14.3911V15.5886H239.701V14.8423C239.701 14.3173 239.404 13.9482 238.728 13.6448C238.051 13.3495 237.375 13.1936 236.772 13.1936C235.345 13.1936 234.14 13.7186 233.167 14.6864C232.193 15.6543 231.739 16.9256 231.739 18.4922C231.739 20.0588 232.267 21.3301 233.241 22.2241C234.214 23.192 235.419 23.6431 236.846 23.6431C238.422 23.6431 239.776 23.1182 240.898 22.0027L241.12 21.7812L241.946 23.1264C241.871 23.2002 241.797 23.274 241.723 23.3478C241.649 23.4216 241.426 23.6431 241.12 23.8728C240.815 24.1024 240.444 24.3239 240.073 24.5453C239.693 24.693 239.247 24.9226 238.645 25.0703C238.043 25.2179 237.441 25.2917 236.846 25.2917C234.891 25.2917 233.241 24.693 231.888 23.4216C230.452 22.0109 229.775 20.3705 229.775 18.4266Z" fill="white"/>
<path d="M246.599 24.8492V13.8748C246.599 13.4975 246.377 13.2761 245.997 13.2761H244.949V11.7833H246.748C247.878 11.7833 248.398 12.3082 248.398 13.2761V14.1701L248.324 15.1379H248.398C248.695 14.0963 249.223 13.2679 249.974 12.6773C250.725 12.0868 251.55 11.7095 252.524 11.7095L253.2 11.7833V13.4975C252.977 13.4975 252.746 13.4237 252.524 13.4237C251.624 13.4237 250.873 13.719 250.197 14.3916C249.52 14.9903 249.066 15.8105 248.769 16.8522C248.547 17.5986 248.39 18.4926 248.39 19.3866V24.9066H246.591V24.8492H246.599Z" fill="white"/>
<path d="M256.436 18.3533C256.436 16.2618 257.038 14.6214 258.317 13.3501C259.521 12.0787 261.097 11.48 262.896 11.48C264.62 11.48 265.974 12.0787 266.947 13.1942C267.921 14.3179 268.375 15.8107 268.375 17.4511L268.3 18.3451H258.234C258.234 19.9117 258.762 21.1831 259.736 22.0771C260.71 22.9711 261.914 23.496 263.342 23.496C264.769 23.496 266.048 22.9711 267.17 22.0033L267.319 21.8556L268.218 23.2008C268.069 23.3484 267.838 23.496 267.616 23.7257C267.319 23.9472 266.79 24.2506 265.965 24.5459C265.14 24.9232 264.241 25.0708 263.333 25.0708C261.378 25.0708 259.728 24.3983 258.449 23.127C257.038 22.0115 256.436 20.3711 256.436 18.3533ZM258.308 17.0082H266.568C266.493 15.7369 266.114 14.6952 265.437 14.0226C264.761 13.3501 263.861 12.981 262.888 12.981C261.757 12.981 260.784 13.3583 259.959 14.0226C259.059 14.769 258.54 15.7451 258.308 17.0082Z" fill="white"/>
<path d="M271.377 21.3383C271.377 18.3528 274.083 16.86 279.413 16.86H280.164V16.7123C280.164 15.3672 279.941 14.3993 279.413 13.8744C278.885 13.3495 278.06 13.0542 276.781 13.0542C276.253 13.0542 275.651 13.128 275.131 13.2757C274.603 13.4233 274.232 13.7268 274.232 14.1697V14.9899H272.507V13.7186C272.507 13.2675 272.656 12.9722 273.035 12.5949C273.332 12.2996 273.786 12.07 274.314 11.9223C274.842 11.7747 275.288 11.7009 275.667 11.627C276.121 11.5532 276.493 11.5532 276.798 11.5532C278.753 11.5532 280.098 12.0043 280.849 12.8984C281.6 13.7924 281.979 14.9899 281.979 16.5565V22.8229C281.979 23.2002 282.202 23.4216 282.582 23.4216H283.712V24.9144H281.913C281.311 24.9144 280.94 24.7668 280.709 24.5371C280.486 24.3157 280.329 23.9384 280.329 23.3396V22.3718H280.255C280.255 22.3718 280.255 22.4456 280.106 22.667C280.032 22.8885 279.884 23.1182 279.653 23.3396C279.43 23.6349 279.199 23.9384 278.828 24.1598C278.531 24.4551 278.077 24.6848 277.549 24.8324C277.021 25.0539 276.418 25.1277 275.824 25.1277C274.62 25.1277 273.572 24.7504 272.672 24.086C271.823 23.5037 271.377 22.6096 271.377 21.3383ZM273.176 21.2645C273.176 21.9371 273.398 22.462 273.927 22.9787C274.455 23.5037 275.131 23.7251 276.105 23.7251C277.309 23.7251 278.283 23.2002 278.96 22.2323C279.636 21.2645 280.09 20.1408 280.09 18.8695V18.2707H279.339C278.885 18.2707 278.514 18.2707 278.135 18.2707C277.837 18.2707 277.384 18.3446 276.856 18.3446C276.328 18.3446 275.882 18.4922 275.502 18.6398C275.123 18.7875 274.752 18.9351 274.372 19.1648C273.993 19.3862 273.695 19.6897 273.473 19.985C273.25 20.3705 273.176 20.8216 273.176 21.2645Z" fill="white"/>
<path d="M287.07 20.1487V13.3574H285.42V11.8646H287.144V8.28027H288.943V11.8646H292.169V13.3574H288.943V20.0011C288.943 20.5998 289.017 21.1247 289.166 21.4938C289.314 21.945 289.463 22.2402 289.694 22.4617C289.917 22.6831 290.148 22.9128 290.445 23.0604C290.742 23.2081 290.973 23.2819 291.196 23.3557C291.418 23.4295 291.649 23.4295 291.872 23.4295L292.474 23.3557V24.9961C292.252 24.9961 292.021 25.07 291.724 25.07C291.344 25.07 290.973 25.07 290.676 24.9961C290.296 24.9223 289.925 24.8485 289.471 24.6188C289.017 24.3974 288.646 24.1677 288.341 23.7986C288.044 23.5034 287.738 22.9784 287.516 22.3797C287.219 21.7153 287.07 20.9689 287.07 20.1487Z" fill="white"/>
<path d="M296.23 18.3533C296.23 16.2618 296.833 14.6214 298.112 13.3501C299.391 12.0787 300.892 11.48 302.691 11.48C304.415 11.48 305.769 12.0787 306.742 13.1942C307.716 14.3179 308.17 15.8107 308.17 17.4511L308.095 18.3451H298.029C298.029 19.9117 298.557 21.1831 299.531 22.0771C300.504 22.9711 301.709 23.496 303.136 23.496C304.564 23.496 305.843 22.9711 306.965 22.0033L307.113 21.8556L308.013 23.2008C307.864 23.3484 307.633 23.496 307.41 23.7257C307.113 23.9472 306.585 24.2506 305.76 24.5459C304.935 24.9232 304.036 25.0708 303.128 25.0708C301.173 25.0708 299.523 24.3983 298.244 23.127C296.907 22.0115 296.23 20.3711 296.23 18.3533ZM298.186 17.0082H306.445C306.371 15.7369 305.991 14.6952 305.315 14.0226C304.638 13.3501 303.739 12.981 302.765 12.981C301.635 12.981 300.661 13.3583 299.836 14.0226C298.863 14.769 298.334 15.7451 298.186 17.0082Z" fill="white"/>
<path d="M311.246 24.8486V22.6094H313.35V24.8486H311.246Z" fill="white"/>
<path d="M324.918 22.9046C323.87 21.6333 323.342 20.0667 323.342 18.049C323.342 16.1051 323.87 14.4647 324.918 13.2754C325.966 12.0779 327.319 11.4873 329.051 11.4873C329.728 11.4873 330.33 11.5611 330.85 11.7088C331.378 11.8564 331.824 12.004 332.129 12.2337C332.434 12.4633 332.657 12.6848 332.88 12.9063C333.103 13.1277 333.259 13.2836 333.334 13.4312L333.408 13.6527H333.482V13.2015C333.482 12.3075 333.936 11.7826 334.91 11.8564H336.708V13.3492H335.661C335.281 13.3492 335.058 13.5706 335.058 13.9479V24.6188C335.058 26.5627 334.456 27.9817 333.259 28.9495C332.063 29.9174 330.553 30.3685 328.754 30.3685C327.253 30.3685 325.825 29.9912 324.472 29.3268L325.149 27.8341C326.197 28.4328 327.401 28.7281 328.68 28.7281C330.033 28.7281 331.155 28.3508 331.981 27.6864C332.806 27.0139 333.259 25.9722 333.259 24.627V23.5034V22.6093H333.185C332.36 24.1021 331.007 24.9223 329.051 24.9223C327.393 24.7747 325.966 24.1759 324.918 22.9046ZM329.423 23.2081C330.553 23.2081 331.527 22.8308 332.278 22.0106C333.028 21.1904 333.326 19.919 333.326 18.131C333.326 14.8502 331.972 13.2015 329.192 13.2015C327.913 13.2015 326.939 13.6527 326.188 14.4729C325.512 15.2931 325.141 16.5644 325.141 18.131C325.141 19.6976 325.52 20.9689 326.345 21.8629C327.096 22.757 328.144 23.2081 329.423 23.2081Z" fill="white"/>
<path d="M342.377 24.8492V13.8748C342.377 13.4975 342.154 13.2761 341.775 13.2761H340.645V11.7833H342.443C343.574 11.7833 344.093 12.3082 344.093 13.2761V14.1701L344.019 15.1379H344.093C344.39 14.0963 344.919 13.2679 345.669 12.6773C346.42 12.0786 347.245 11.7095 348.219 11.7095L348.895 11.7833V13.4975C348.673 13.4975 348.442 13.4237 348.219 13.4237C347.32 13.4237 346.569 13.719 345.892 14.3916C345.216 14.9903 344.762 15.8105 344.465 16.8522C344.242 17.5986 344.085 18.4926 344.085 19.3866V24.9066H342.361V24.8492H342.377Z" fill="white"/>
<path d="M351.049 18.279C351.049 16.3351 351.725 14.7685 353.079 13.5054C354.432 12.2341 356.082 11.5615 357.963 11.5615C359.919 11.5615 361.495 12.2341 362.848 13.5054C364.201 14.7767 364.877 16.4172 364.877 18.3611C364.877 20.305 364.201 21.9454 362.848 23.2905C361.495 24.6357 359.844 25.3082 357.963 25.3082C356.008 25.3082 354.432 24.6357 353.079 23.2905C351.725 21.8634 351.049 20.2229 351.049 18.279ZM352.848 18.279C352.848 19.7718 353.376 21.0431 354.349 22.0848C355.323 23.1265 356.527 23.5776 357.955 23.5776C359.382 23.5776 360.587 23.0527 361.561 22.0848C362.534 21.0431 363.062 19.8456 363.062 18.279C363.062 16.7863 362.534 15.5888 361.561 14.6209C360.587 13.6531 359.382 13.1281 357.955 13.1281C356.527 13.1281 355.323 13.6531 354.349 14.6209C353.376 15.597 352.848 16.8601 352.848 18.279Z" fill="white"/>
<path d="M371.701 24.8483L367.947 13.9478C367.798 13.4966 367.493 13.2752 367.048 13.2752H366.668V11.7824H367.567C368.244 11.7824 368.772 11.8562 369.069 12.0039C369.366 12.1515 369.597 12.5288 369.82 13.1275L372.452 21.4117L372.906 22.7568C372.98 22.2319 373.054 21.8628 373.128 21.4117L376.355 11.7824H378.236L381.388 21.4117L381.841 22.7568H381.916C381.99 22.2319 382.064 21.789 382.213 21.4117L384.919 13.1275C385.142 12.5288 385.373 12.1597 385.596 11.93C385.893 11.7824 386.346 11.6348 386.949 11.6348H387.848V13.1275H387.551C387.097 13.1275 386.8 13.349 386.652 13.8001L382.898 24.7007H380.942L377.79 15.3667L377.336 14.0216H377.262C377.114 14.5465 376.965 14.9894 376.734 15.3667L373.582 24.7007H371.701V24.8483Z" fill="white"/>
<path d="M388.896 24.8486V22.6094H391V24.8486H388.896Z" fill="white"/>
<line x1="134.557" y1="2.18557e-08" x2="134.557" y2="32" stroke="white"/>
</svg>
