<svg width="40" height="40" viewBox="0 0 40 40" fill="none" xmlns="http://www.w3.org/2000/svg">
<path fill-rule="evenodd" clip-rule="evenodd" d="M20 0C8.9543 0 0 8.9543 0 20C0 31.0457 8.9543 40 20 40C31.0457 40 40 31.0457 40 20C40 8.9543 31.0457 0 20 0ZM28.3347 13.1248C29.2526 13.3767 29.9756 14.1188 30.2209 15.0613C30.6667 16.7695 30.6667 20.3337 30.6667 20.3337C30.6667 20.3337 30.6667 23.8977 30.2209 25.606C29.9756 26.5485 29.2526 27.2907 28.3347 27.5427C26.6712 28.0003 20 28.0003 20 28.0003C20 28.0003 13.3289 28.0003 11.6653 27.5427C10.7473 27.2907 10.0244 26.5485 9.77907 25.606C9.33337 23.8977 9.33337 20.3337 9.33337 20.3337C9.33337 20.3337 9.33337 16.7695 9.77907 15.0613C10.0244 14.1188 10.7473 13.3767 11.6653 13.1248C13.3289 12.667 20 12.667 20 12.667C20 12.667 26.6712 12.667 28.3347 13.1248Z" fill="white"/>
<path fill-rule="evenodd" clip-rule="evenodd" d="M18 23.9997V17.333L23.3333 20.6665L18 23.9997Z" fill="white"/>
</svg>
