<?xml version="1.0" encoding="UTF-8"?>
<svg xmlns="http://www.w3.org/2000/svg" style="display: none;">
  <symbol id="diagonal-lines" viewBox="0 0 370 229">
    <rect x="-81.2" y="113.5" transform="matrix(0.3124 -0.9499 0.9499 0.3124 -82.4685 115.1624)" width="239" height="2"/>
    <rect x="-58.8" y="113.5" transform="matrix(0.3124 -0.9499 0.9499 0.3124 -67.0919 136.4063)" width="239" height="2"/>
    <rect x="-36.8" y="113.5" transform="matrix(0.3124 -0.9499 0.9499 0.3124 -51.9651 157.3051)" width="239" height="2"/>
    <rect x="-14.8" y="113.5" transform="matrix(0.3124 -0.9499 0.9499 0.3124 -36.8383 178.2039)" width="239" height="2"/>
    <rect x="7.2" y="113.5" transform="matrix(0.3124 -0.9499 0.9499 0.3124 -21.7115 199.1027)" width="239" height="2"/>
    <rect x="29.2" y="113.5" transform="matrix(0.3124 -0.9499 0.9499 0.3124 -6.5848 220.0012)" width="239" height="2"/>
    <rect x="51.2" y="113.5" transform="matrix(0.3124 -0.9499 0.9499 0.3124 8.542 240.9)" width="239" height="2"/>
    <rect x="73.2" y="113.5" transform="matrix(0.3124 -0.9499 0.9499 0.3124 23.6688 261.7988)" width="239" height="2"/>
    <rect x="95.2" y="113.5" transform="matrix(0.3124 -0.9499 0.9499 0.3124 38.7956 282.6976)" width="239" height="2"/>
    <rect x="139.2" y="113.5" transform="matrix(0.3124 -0.9499 0.9499 0.3124 69.0494 324.4954)" width="239" height="2"/>
    <rect x="183.2" y="113.5" transform="matrix(0.3124 -0.9499 0.9499 0.3124 99.303 366.293)" width="239" height="2"/>
    <rect x="227.2" y="113.5" transform="matrix(0.3124 -0.9499 0.9499 0.3124 129.5567 408.0905)" width="239" height="2"/>
    <rect x="271.2" y="113.5" transform="matrix(0.3124 -0.9499 0.9499 0.3124 159.8103 449.8881)" width="239" height="2"/>
    <rect x="117.2" y="113.5" transform="matrix(0.3124 -0.9499 0.9499 0.3124 53.9226 303.5966)" width="239" height="2"/>
    <rect x="161.2" y="113.5" transform="matrix(0.3124 -0.9499 0.9499 0.3124 84.1762 345.3942)" width="239" height="2"/>
    <rect x="205.2" y="113.5" transform="matrix(0.3124 -0.9499 0.9499 0.3124 114.4298 387.1917)" width="239" height="2"/>
    <rect x="249.2" y="113.5" transform="matrix(0.3124 -0.9499 0.9499 0.3124 144.6835 428.9893)" width="239" height="2"/>
  </symbol>
  <symbol id="dotted-squares" viewBox="0 0 495 226">
    <rect x="247.076" width="14.2896" height="13.5751"/>
    <rect x="294.231" width="13.5751" height="13.5751"/>
    <rect x="340.672" width="14.2896" height="13.5751"/>
    <rect x="387.828" width="13.5751" height="13.5751"/>
    <rect x="434.27" width="14.2896" height="13.5751"/>
    <rect x="481.425" width="13.5751" height="13.5751"/>
    <rect x="13.4409" width="14.2896" height="13.5751"/>
    <rect x="60.5967" width="13.5751" height="13.5751"/>
    <rect x="107.038" width="13.5751" height="13.5751"/>
    <rect x="153.479" width="14.2896" height="13.5751"/>
    <rect x="200.635" width="13.5751" height="13.5751"/>
    <rect x="247.076" y="42.1543" width="14.2896" height="14.2896"/>
    <rect x="294.231" y="42.1543" width="13.5751" height="14.2896"/>
    <rect x="340.672" y="42.1543" width="14.2896" height="14.2896"/>
    <rect x="387.828" y="42.1543" width="13.5751" height="14.2896"/>
    <rect x="434.27" y="42.1543" width="14.2896" height="14.2896"/>
    <rect x="481.425" y="42.1543" width="13.5751" height="14.2896"/>
    <rect x="13.4409" y="42.1543" width="14.2896" height="14.2896"/>
    <rect x="60.5967" y="42.1543" width="13.5751" height="14.2896"/>
    <rect x="107.038" y="42.1543" width="13.5751" height="14.2896"/>
    <rect x="153.479" y="42.1543" width="14.2896" height="14.2896"/>
    <rect x="200.635" y="42.1543" width="13.5751" height="14.2896"/>
    <rect x="247.076" y="85.0229" width="14.2896" height="13.5751"/>
    <rect x="294.231" y="85.0229" width="13.5751" height="13.5751"/>
    <rect x="340.672" y="85.0229" width="14.2896" height="13.5751"/>
    <rect x="387.828" y="85.0229" width="13.5751" height="13.5751"/>
    <rect x="434.27" y="85.0229" width="14.2896" height="13.5751"/>
    <rect x="481.425" y="85.0229" width="13.5751" height="13.5751"/>
    <rect x="13.4409" y="85.0229" width="14.2896" height="13.5751"/>
    <rect x="60.5967" y="85.0229" width="13.5751" height="13.5751"/>
    <rect x="107.038" y="85.0229" width="13.5751" height="13.5751"/>
    <rect x="153.479" y="85.0229" width="14.2896" height="13.5751"/>
    <rect x="200.635" y="85.0229" width="13.5751" height="13.5751"/>
    <rect x="247.076" y="127.177" width="14.2896" height="13.5751"/>
    <rect x="294.231" y="127.177" width="13.5751" height="13.5751"/>
    <rect x="340.672" y="127.177" width="14.2896" height="13.5751"/>
    <rect x="387.828" y="127.177" width="13.5751" height="13.5751"/>
    <rect x="434.27" y="127.177" width="14.2896" height="13.5751"/>
    <rect x="481.425" y="127.177" width="13.5751" height="13.5751"/>
    <rect x="13.4409" y="127.177" width="14.2896" height="13.5751"/>
    <rect x="60.5967" y="127.177" width="13.5751" height="13.5751"/>
    <rect x="107.038" y="127.177" width="13.5751" height="13.5751"/>
    <rect x="153.479" y="127.177" width="14.2896" height="13.5751"/>
    <rect x="200.635" y="127.177" width="13.5751" height="13.5751"/>
    <rect x="247.076" y="169.332" width="14.2896" height="14.2896"/>
    <rect x="294.231" y="169.332" width="13.5751" height="14.2896"/>
    <rect x="340.672" y="169.332" width="14.2896" height="14.2896"/>
    <rect x="387.828" y="169.332" width="13.5751" height="14.2896"/>
    <rect x="434.27" y="169.332" width="14.2896" height="14.2896"/>
    <rect x="481.425" y="169.332" width="13.5751" height="14.2896"/>
    <rect x="13.4409" y="169.332" width="14.2896" height="14.2896"/>
    <rect x="60.5967" y="169.332" width="13.5751" height="14.2896"/>
    <rect x="107.038" y="169.332" width="13.5751" height="14.2896"/>
    <rect x="153.479" y="169.332" width="14.2896" height="14.2896"/>
    <rect x="200.635" y="169.332" width="13.5751" height="14.2896"/>
    <rect x="247.076" y="212.2" width="14.2896" height="13.5751"/>
    <rect x="294.231" y="212.2" width="13.5751" height="13.5751"/>
    <rect x="340.672" y="212.2" width="14.2896" height="13.5751"/>
    <rect x="387.828" y="212.2" width="13.5751" height="13.5751"/>
    <rect x="434.27" y="212.2" width="14.2896" height="13.5751"/>
    <rect x="481.425" y="212.2" width="13.5751" height="13.5751"/>
    <rect x="13.4409" y="212.2" width="14.2896" height="13.5751"/>
    <rect x="60.5967" y="212.2" width="13.5751" height="13.5751"/>
    <rect x="107.038" y="212.2" width="13.5751" height="13.5751"/>
    <rect x="153.479" y="212.2" width="14.2896" height="13.5751"/>
    <rect x="200.635" y="212.2" width="13.5751" height="13.5751"/>
  </symbol>
  <symbol id="caret-left" viewBox="0 0 19 29">
    <polygon points="13.9,28.4 0.4,14.8 13.9,0.2 18.3,4.3 8.7,14.6 18.2,24.2 "/>
  </symbol>
  <symbol id="caret-right">
    <polygon points="5.1,28.3 0.7,24.3 10.3,14 0.8,4.4 5.1,0.2 18.6,13.8 "/>
  </symbol>
  <symbol id="logo-and-slogan" viewBox="0 0 336 28">
    <path d="M10.2791 14.7033C9.37093 15.4554 8.09852 15.8203 6.41444 15.8203H3.196V21.3408H0V6.00293H6.60655C8.13844 6.00293 9.34847 6.39016 10.2566 7.18449C11.1648 7.97881 11.6164 9.20505 11.6164 10.8582C11.6164 12.6628 11.1623 13.9511 10.2791 14.7033ZM7.81659 9.18271C7.40742 8.84015 6.84607 8.6664 6.11006 8.6664H3.196V13.1791H6.09011C6.82361 13.1791 7.38497 12.9855 7.79663 12.6206C8.2058 12.2557 8.4004 11.6749 8.4004 10.8806C8.42036 10.0838 8.22576 9.5054 7.81659 9.18271Z" fill="white"/>
    <path d="M17.986 21.321H14.79V6.00293H17.986V21.321Z" fill="white"/>
    <path d="M24.313 21.321H20.5781L25.5455 13.5217L20.8151 6.00293H24.6598L27.4242 10.9873L30.231 6.00293H33.9459L29.238 13.3926L34.2478 21.321H30.3383L27.4242 16.1008L24.313 21.321Z" fill="white"/>
    <path d="M48.3889 8.70859H40.2255V11.9529H47.7178V14.6164H40.2255V18.5483H48.7557V21.2986H37.0745V6.00293H48.3665V8.70859H48.3889Z" fill="white"/>
    <path d="M52.1265 6.00293H55.3449V18.5706H63.0318V21.321H52.1265V6.00293Z" fill="white"/>
    <path d="M67.0685 17.5405C67.1983 18.6153 67.6948 19.3451 68.558 19.7522C69.0121 19.9682 69.5285 20.0749 70.1124 20.0749C71.2351 20.0749 72.0559 19.7324 72.5948 19.0224C73.1337 18.3125 73.3932 17.5405 73.3932 16.6817C73.3932 15.6515 73.0688 14.8349 72.4426 14.2763C71.7939 13.7178 71.038 13.4175 70.1548 13.4175C69.5061 13.4175 68.9447 13.5466 68.4931 13.7824C68.0391 14.0405 67.6299 14.3831 67.3056 14.8125L65.6864 14.7256L66.8315 6.71289H74.6057V8.51749H68.2362L67.5875 12.6629C67.9318 12.4047 68.2561 12.2111 68.5805 12.0622C69.1418 11.8263 69.7905 11.7196 70.524 11.7196C71.9062 11.7196 73.0514 12.149 74.0219 13.0302C74.9725 13.9114 75.4465 15.0285 75.4465 16.3813C75.4465 17.7987 75.0149 19.0249 74.1292 20.0972C73.2435 21.1721 71.8613 21.7082 69.9402 21.7082C68.7302 21.7082 67.6524 21.3657 66.7018 20.6781C65.7737 19.9905 65.2323 18.938 65.125 17.5405H67.0685Z" fill="white"/>
    <path d="M87.1701 8.81807C87.8387 10.0418 88.163 11.7174 88.163 13.867C88.163 15.8876 87.8612 17.5631 87.2549 18.8936C86.3692 20.7851 84.9446 21.7507 82.9586 21.7507C81.1673 21.7507 79.8275 20.9762 78.9418 19.4297C78.2083 18.1414 77.8416 16.4014 77.8416 14.2095C77.8416 12.5117 78.0586 11.072 78.4902 9.84821C79.3335 7.57198 80.823 6.43262 82.9811 6.43262C84.9246 6.43262 86.3068 7.22694 87.1701 8.81807ZM85.2914 18.7422C85.8752 17.8833 86.1546 16.2723 86.1546 13.929C86.1546 12.2312 85.9376 10.8362 85.5284 9.76133C85.1192 8.66665 84.2984 8.128 83.0884 8.128C81.9881 8.128 81.1673 8.64431 80.6483 9.67445C80.1294 10.7046 79.8699 12.2312 79.8699 14.2493C79.8699 15.7734 80.0421 16.9773 80.3664 17.9007C80.8629 19.318 81.7261 20.0056 82.9362 20.0056C83.9317 20.0329 84.7101 19.601 85.2914 18.7422Z" fill="white"/>
    <path d="M99.6946 7.67838C100.343 8.53725 100.688 9.44079 100.688 10.3419H98.8313C98.724 9.761 98.5494 9.28937 98.2924 8.96668C97.8383 8.34363 97.1473 8.02094 96.2416 8.02094C95.1838 8.02094 94.3629 8.51491 93.7367 9.48299C93.1105 10.4511 92.7662 11.8238 92.7013 13.6284C93.1329 13.0053 93.6718 12.5337 94.343 12.211C94.9467 11.9305 95.6179 11.8039 96.3514 11.8039C97.6038 11.8039 98.7041 12.211 99.6347 13.0078C100.563 13.8021 101.039 14.9837 101.039 16.5748C101.039 17.9276 100.608 19.1315 99.722 20.1617C98.8363 21.2142 97.5839 21.7305 95.9422 21.7305C94.5376 21.7305 93.33 21.1943 92.3146 20.1418C91.2992 19.0893 90.7827 17.3071 90.7827 14.7925C90.7827 12.9457 90.9998 11.377 91.4514 10.0887C92.3146 7.61881 93.9138 6.39257 96.2241 6.39257C97.8808 6.36775 99.0484 6.81952 99.6946 7.67838ZM98.2924 19.0645C98.7889 18.3993 99.0259 17.6248 99.0259 16.7237C99.0259 15.9716 98.8089 15.2418 98.3773 14.5542C97.9456 13.8667 97.1473 13.5241 95.9796 13.5241C95.1813 13.5241 94.4677 13.7823 93.8639 14.3184C93.2602 14.8546 92.9558 15.6514 92.9558 16.7237C92.9558 17.6695 93.2377 18.4638 93.7766 19.1092C94.338 19.7546 95.0939 20.0748 96.0869 20.0748C97.0599 20.0525 97.7959 19.7099 98.2924 19.0645Z" fill="white"/>
    <path d="M128.169 17.2779V11.4542H126.755V10.1742H128.232V7.10059H129.773V10.1742H132.538V11.4542H129.773V17.1513C129.773 17.6647 129.837 18.1148 129.964 18.4313C130.092 18.8182 130.219 19.0714 130.417 19.2613C130.608 19.4512 130.806 19.6481 131.06 19.7747C131.315 19.9013 131.512 19.9646 131.703 20.0279C131.894 20.0912 132.092 20.0912 132.283 20.0912L132.799 20.0279V21.4346C132.608 21.4346 132.41 21.4979 132.156 21.4979C131.831 21.4979 131.512 21.4979 131.258 21.4346C130.933 21.3713 130.615 21.308 130.226 21.111C129.837 20.9141 129.519 20.7242 129.257 20.4077C129.003 20.1545 128.741 19.7044 128.55 19.1909C128.232 18.6212 128.169 17.9812 128.169 17.2779Z" fill="white"/>
    <path d="M137.048 21.3076V7.48003C137.048 7.15649 136.92 6.96659 136.595 6.96659H135.698V5.68652H137.309C137.762 5.68652 138.143 5.81312 138.341 6.01006C138.532 6.19996 138.667 6.52349 138.667 7.03693V11.7704L138.603 12.6636C138.857 12.0236 139.374 11.3835 140.144 10.8068C140.915 10.2301 141.883 9.91357 143.042 9.91357C144.393 9.91357 145.361 10.3004 146.004 11.0037C146.584 11.7071 146.902 12.7972 146.902 14.2672V19.6407C146.902 19.9642 147.029 20.1541 147.355 20.1541H148.252V21.4342H146.641C146.188 21.4342 145.807 21.3076 145.609 21.1107C145.418 20.9208 145.283 20.5972 145.283 20.0838V14.7103C145.283 14.1969 145.283 13.7468 145.22 13.4303C145.156 13.1067 145.029 12.7269 144.895 12.4034C144.704 12.0798 144.506 11.8266 144.124 11.6367C143.799 11.4468 143.353 11.3835 142.837 11.3835C141.869 11.3835 141.035 11.7071 140.264 12.2768C139.494 12.8535 139.041 13.6202 138.787 14.5837C138.66 14.9706 138.596 15.477 138.596 16.0537V21.4272H137.055V21.3076H137.048Z" fill="white"/>
    <path d="M153.328 20.0275V11.9603C153.328 11.6367 153.201 11.4468 152.876 11.4468H151.978V10.1668H153.59C154.042 10.1668 154.424 10.2934 154.622 10.4903C154.813 10.6802 154.947 11.0037 154.947 11.5172V19.5844C154.947 19.908 155.074 20.0979 155.399 20.0979H156.297V21.378H154.685C154.233 21.378 153.851 21.2514 153.653 21.0544C153.455 20.7942 153.328 20.4777 153.328 20.0275ZM153.328 7.60663V5.68652H154.805V7.60663H153.328Z" fill="white"/>
    <path d="M161.436 21.3078V11.8971C161.436 11.5736 161.246 11.3837 160.92 11.3837H159.952V10.1036H161.493C162.461 10.1036 162.907 10.4904 162.907 11.3204V11.8338L162.843 12.6005H162.907C163.161 11.8971 163.677 11.3204 164.448 10.6803C165.218 10.1036 166.187 9.78711 167.346 9.78711C168.697 9.78711 169.665 10.1739 170.308 10.8773C170.888 11.5806 171.206 12.6708 171.206 14.1408V19.5143C171.206 19.8378 171.333 20.0277 171.659 20.0277H172.556V21.3078H170.945C170.492 21.3078 170.11 21.1812 169.912 20.9842C169.715 20.7873 169.587 20.4708 169.587 19.9574V14.5839C169.587 13.4937 169.46 12.7271 169.135 12.087C168.81 11.5103 168.166 11.1938 167.205 11.1938C166.236 11.1938 165.402 11.5173 164.632 12.087C163.861 12.6638 163.345 13.4304 163.091 14.394C162.963 14.7808 162.9 15.2872 162.9 15.9272V21.3007H161.436V21.3078Z" fill="white"/>
    <path d="M175.893 21.3076V7.48003C175.893 7.15649 175.766 6.96659 175.441 6.96659H174.472V5.68652H176.084C176.6 5.68652 176.918 5.81312 177.116 6.01006C177.307 6.19996 177.441 6.52349 177.441 7.03693V14.4642H178.601C179.18 14.4642 179.569 14.2743 179.887 13.8874L182.786 10.1105H184.588L181.372 14.2039C181.244 14.3938 181.047 14.5908 180.919 14.7174C180.792 14.844 180.665 14.9073 180.665 14.9706L180.601 15.0339V15.0972C180.792 15.2238 181.054 15.484 181.244 15.9271L183.302 19.5774C183.429 19.7673 183.492 19.9642 183.69 20.0275C183.818 20.0908 184.079 20.1541 184.334 20.1541H184.913V21.4342H183.881C183.302 21.4342 182.913 21.3709 182.658 21.2443C182.404 21.1177 182.142 20.7942 181.888 20.3511L179.633 16.321C179.442 15.9974 179.053 15.8075 178.473 15.8075H177.441V21.378H175.9V21.3076H175.893Z" fill="white"/>
    <path d="M186.638 21.3078V19.3877H188.441V21.3078H186.638Z" fill="white"/>
    <path d="M196.867 15.8002C196.867 14.07 197.447 12.6633 198.543 11.5732C199.702 10.483 201.052 9.90625 202.791 9.90625C203.18 9.90625 203.562 9.96955 203.951 10.0329C204.403 10.0962 204.785 10.2227 205.237 10.4197C205.69 10.6096 206.008 10.8065 206.333 11.1863C206.658 11.5099 206.786 11.8897 206.786 12.3398V13.3667H205.372V12.7266C205.372 12.2765 205.117 11.96 204.538 11.6998C203.958 11.4466 203.378 11.3129 202.862 11.3129C201.639 11.3129 200.607 11.7631 199.773 12.593C198.939 13.4229 198.55 14.5131 198.55 15.8565C198.55 17.1998 199.002 18.29 199.837 19.0566C200.671 19.8866 201.703 20.2734 202.926 20.2734C204.276 20.2734 205.435 19.8233 206.397 18.8667L206.588 18.6768L207.295 19.8303C207.231 19.8936 207.167 19.9569 207.104 20.0202C207.04 20.0835 206.849 20.2734 206.588 20.4704C206.326 20.6673 206.008 20.8572 205.69 21.0471C205.365 21.1737 204.983 21.3706 204.467 21.4972C203.951 21.6238 203.435 21.6871 202.926 21.6871C201.25 21.6871 199.837 21.1737 198.677 20.0835C197.447 18.8738 196.867 17.4671 196.867 15.8002Z" fill="white"/>
    <path d="M211.282 21.3075V11.8968C211.282 11.5733 211.091 11.3834 210.766 11.3834H209.868V10.1033H211.409C212.378 10.1033 212.823 10.5535 212.823 11.3834V12.15L212.759 12.98H212.823C213.077 12.0867 213.53 11.3764 214.173 10.87C214.816 10.3636 215.523 10.04 216.358 10.04L216.937 10.1033V11.5733C216.746 11.5733 216.548 11.51 216.358 11.51C215.587 11.51 214.944 11.7632 214.364 12.34C213.784 12.8534 213.395 13.5567 213.141 14.45C212.95 15.09 212.816 15.8566 212.816 16.6233V21.3567H211.275V21.3075H211.282Z" fill="white"/>
    <path d="M219.708 15.7377C219.708 13.9442 220.224 12.5375 221.32 11.4474C222.352 10.3572 223.702 9.84375 225.243 9.84375C226.721 9.84375 227.88 10.3572 228.714 11.3137C229.549 12.2773 229.937 13.5574 229.937 14.964L229.874 15.7307H221.249C221.249 17.074 221.702 18.1642 222.536 18.9309C223.37 19.6975 224.402 20.1476 225.625 20.1476C226.848 20.1476 227.944 19.6975 228.905 18.8676L229.033 18.741L229.803 19.8944C229.676 20.021 229.478 20.1476 229.287 20.3446C229.033 20.5345 228.58 20.7947 227.873 21.0479C227.166 21.3714 226.396 21.498 225.618 21.498C223.943 21.498 222.529 20.9213 221.433 19.8311C220.224 18.8746 219.708 17.4679 219.708 15.7377ZM221.313 14.5842H228.389C228.326 13.4941 228 12.6008 227.421 12.0241C226.841 11.4474 226.071 11.1309 225.236 11.1309C224.268 11.1309 223.434 11.4544 222.727 12.0241C221.956 12.6641 221.511 13.5011 221.313 14.5842Z" fill="white"/>
    <path d="M232.51 18.297C232.51 15.7369 234.829 14.4568 239.396 14.4568H240.039V14.3302C240.039 13.1768 239.848 12.3468 239.396 11.8967C238.944 11.4466 238.237 11.1934 237.141 11.1934C236.688 11.1934 236.172 11.2567 235.727 11.3833C235.275 11.5099 234.956 11.7701 234.956 12.1499V12.8532H233.479V11.7631C233.479 11.3762 233.606 11.123 233.931 10.7995C234.186 10.5463 234.575 10.3493 235.027 10.2227C235.48 10.0961 235.861 10.0328 236.187 9.96955C236.575 9.90625 236.893 9.90625 237.155 9.90625C238.83 9.90625 239.983 10.2931 240.626 11.0597C241.269 11.8264 241.595 12.8532 241.595 14.1966V19.5701C241.595 19.8936 241.785 20.0835 242.111 20.0835H243.079V21.3636H241.538C241.022 21.3636 240.704 21.237 240.506 21.0401C240.315 20.8502 240.181 20.5266 240.181 20.0132V19.1832H240.117C240.117 19.1832 240.117 19.2465 239.99 19.4365C239.926 19.6264 239.799 19.8233 239.601 20.0132C239.41 20.2664 239.212 20.5266 238.894 20.7165C238.64 20.9697 238.251 21.1667 237.798 21.2933C237.346 21.4832 236.83 21.5465 236.321 21.5465C235.289 21.5465 234.391 21.2229 233.62 20.6532C232.892 20.1539 232.51 19.3872 232.51 18.297ZM234.052 18.2337C234.052 18.8105 234.242 19.2606 234.695 19.7037C235.147 20.1539 235.727 20.3438 236.561 20.3438C237.593 20.3438 238.427 19.8936 239.007 19.0637C239.587 18.2337 239.976 17.2702 239.976 16.18V15.6666H239.332C238.944 15.6666 238.625 15.6666 238.3 15.6666C238.046 15.6666 237.657 15.7299 237.204 15.7299C236.752 15.7299 236.37 15.8565 236.045 15.9831C235.72 16.1097 235.402 16.2363 235.077 16.4332C234.751 16.6231 234.497 16.8833 234.306 17.1365C234.115 17.4671 234.052 17.8539 234.052 18.2337Z" fill="white"/>
    <path d="M245.956 17.2779V11.4542H244.542V10.1742H246.02V7.10059H247.561V10.1742H250.325V11.4542H247.561V17.1513C247.561 17.6647 247.625 18.1148 247.752 18.4313C247.879 18.8182 248.006 19.0714 248.204 19.2613C248.395 19.4512 248.593 19.6481 248.848 19.7747C249.102 19.9013 249.3 19.9646 249.491 20.0279C249.682 20.0912 249.88 20.0912 250.071 20.0912L250.587 20.0279V21.4346C250.396 21.4346 250.198 21.4979 249.943 21.4979C249.618 21.4979 249.3 21.4979 249.046 21.4346C248.72 21.3713 248.402 21.308 248.013 21.111C247.625 20.9211 247.307 20.7242 247.045 20.4077C246.791 20.1545 246.529 19.7044 246.338 19.1909C246.084 18.6212 245.956 17.9812 245.956 17.2779Z" fill="white"/>
    <path d="M253.803 15.7377C253.803 13.9442 254.319 12.5375 255.415 11.4474C256.511 10.3572 257.797 9.84375 259.338 9.84375C260.816 9.84375 261.975 10.3572 262.809 11.3137C263.644 12.2773 264.032 13.5574 264.032 14.964L263.969 15.7307H255.344C255.344 17.074 255.797 18.1642 256.631 18.9309C257.465 19.6975 258.497 20.1476 259.72 20.1476C260.943 20.1476 262.039 19.6975 263 18.8676L263.128 18.741L263.898 19.8944C263.771 20.021 263.573 20.1476 263.382 20.3446C263.128 20.5345 262.675 20.7947 261.968 21.0479C261.261 21.3714 260.491 21.498 259.713 21.498C258.038 21.498 256.624 20.9213 255.528 19.8311C254.383 18.8746 253.803 17.4679 253.803 15.7377ZM255.479 14.5842H262.555C262.491 13.4941 262.166 12.6008 261.586 12.0241C261.007 11.4474 260.236 11.1309 259.402 11.1309C258.434 11.1309 257.599 11.4544 256.892 12.0241C256.058 12.6641 255.606 13.5011 255.479 14.5842Z" fill="white"/>
    <path d="M266.669 21.3078V19.3877H268.472V21.3078H266.669Z" fill="white"/>
    <path d="M278.383 19.641C277.485 18.5509 277.033 17.2075 277.033 15.4773C277.033 13.8104 277.485 12.4037 278.383 11.3839C279.281 10.357 280.44 9.85059 281.925 9.85059C282.504 9.85059 283.02 9.91388 283.466 10.0405C283.918 10.1671 284.3 10.2937 284.561 10.4906C284.823 10.6876 285.014 10.8775 285.205 11.0674C285.396 11.2573 285.53 11.3909 285.594 11.5175L285.657 11.7074H285.721V11.3206C285.721 10.5539 286.11 10.1038 286.944 10.1671H288.485V11.4472H287.587C287.262 11.4472 287.071 11.6371 287.071 11.9606V21.111C287.071 22.7779 286.555 23.9947 285.53 24.8246C284.505 25.6545 283.211 26.0414 281.67 26.0414C280.384 26.0414 279.161 25.7178 278.001 25.1481L278.581 23.8681C279.479 24.3815 280.511 24.6347 281.607 24.6347C282.766 24.6347 283.727 24.3112 284.434 23.7415C285.141 23.1647 285.53 22.2715 285.53 21.118V20.1545V19.3878H285.466C284.759 20.6679 283.6 21.3712 281.925 21.3712C280.504 21.2446 279.281 20.7312 278.383 19.641ZM282.243 19.9013C283.211 19.9013 284.045 19.5777 284.689 18.8744C285.332 18.1711 285.587 17.0809 285.587 15.5476C285.587 12.7343 284.427 11.3206 282.045 11.3206C280.949 11.3206 280.115 11.7074 279.472 12.4107C278.892 13.1141 278.574 14.2042 278.574 15.5476C278.574 16.891 278.899 17.9812 279.606 18.7478C280.249 19.5144 281.147 19.9013 282.243 19.9013Z" fill="white"/>
    <path d="M293.341 21.3075V11.8968C293.341 11.5733 293.151 11.3834 292.825 11.3834H291.857V10.1033H293.398C294.366 10.1033 294.812 10.5535 294.812 11.3834V12.15L294.748 12.98H294.812C295.066 12.0867 295.519 11.3764 296.162 10.87C296.805 10.3565 297.512 10.04 298.346 10.04L298.926 10.1033V11.5733C298.735 11.5733 298.537 11.51 298.346 11.51C297.576 11.51 296.933 11.7632 296.353 12.34C295.773 12.8534 295.384 13.5567 295.13 14.45C294.939 15.09 294.805 15.8566 294.805 16.6233V21.3567H293.327V21.3075H293.341Z" fill="white"/>
    <path d="M300.771 15.6744C300.771 14.0075 301.351 12.6641 302.51 11.581C303.67 10.4908 305.083 9.91406 306.695 9.91406C308.371 9.91406 309.721 10.4908 310.88 11.581C312.04 12.6711 312.619 14.0778 312.619 15.7447C312.619 17.4116 312.04 18.8183 310.88 19.9718C309.721 21.1252 308.307 21.702 306.695 21.702C305.02 21.702 303.67 21.1252 302.51 19.9718C301.351 18.748 300.771 17.3413 300.771 15.6744ZM302.312 15.6744C302.312 16.9545 302.765 18.0446 303.599 18.9379C304.433 19.8311 305.465 20.2179 306.688 20.2179C307.911 20.2179 308.943 19.7678 309.777 18.9379C310.612 18.0446 311.064 17.0178 311.064 15.6744C311.064 14.3943 310.612 13.3674 309.777 12.5375C308.943 11.7076 307.911 11.2574 306.688 11.2574C305.465 11.2574 304.433 11.7076 303.599 12.5375C302.765 13.3745 302.312 14.4576 302.312 15.6744Z" fill="white"/>
    <path d="M318.466 21.3073L315.249 11.96C315.122 11.5731 314.86 11.3832 314.478 11.3832H314.153V10.1032H314.924C315.504 10.1032 315.956 10.1665 316.21 10.2931C316.465 10.4197 316.663 10.7432 316.854 11.2566L319.109 18.3603L319.498 19.5138C319.561 19.0637 319.625 18.7472 319.689 18.3603L322.453 10.1032H324.064L326.765 18.3603L327.154 19.5138H327.217C327.281 19.0637 327.344 18.6839 327.472 18.3603L329.79 11.2566C329.981 10.7432 330.179 10.4267 330.37 10.2298C330.625 10.1032 331.013 9.97656 331.529 9.97656H332.3V11.2566H332.046C331.657 11.2566 331.402 11.4465 331.275 11.8334L328.058 21.1807H326.383L323.683 13.1767L323.294 12.0233H323.23C323.103 12.4734 322.976 12.8532 322.778 13.1767L320.077 21.1807H318.466V21.3073Z" fill="white"/>
    <path d="M333.198 21.3078V19.3877H335V21.3078H333.198Z" fill="white"/>
    <line x1="115.357" y1="1.87414e-08" x2="115.357" y2="27.4403" stroke="white"/>
  </symbol>
  <symbol id="linked-in" viewBox="0 0 40 40">
    <path fill-rule="evenodd" clip-rule="evenodd" d="M20 0C8.95431 0 0 8.95431 0 20C0 31.0457 8.95431 40 20 40C31.0457 40 40 31.0457 40 20C40 8.95431 31.0457 0 20 0ZM9.6014 16.5649H14.1338V30.183H9.6014V16.5649ZM14.4323 12.3522C14.4029 11.017 13.448 10 11.8975 10C10.347 10 9.33333 11.017 9.33333 12.3522C9.33333 13.6598 10.317 14.7061 11.8387 14.7061H11.8677C13.448 14.7061 14.4323 13.6598 14.4323 12.3522ZM25.2609 16.2451C28.2435 16.2451 30.4795 18.1919 30.4795 22.3748L30.4793 30.183H25.947V22.8973C25.947 21.0673 25.2912 19.8185 23.6504 19.8185C22.3982 19.8185 21.6524 20.6604 21.3248 21.4735C21.205 21.7649 21.1756 22.1709 21.1756 22.5779V30.1833H16.6426C16.6426 30.1833 16.7023 17.8431 16.6426 16.5653H21.1756V18.4941C21.7771 17.5669 22.8545 16.2451 25.2609 16.2451Z" fill="inherit"/>
  </symbol>
  <symbol id="facebook" viewBox="0 0 40 40">
    <path fill-rule="evenodd" clip-rule="evenodd" d="M20 0C8.95431 0 0 8.95431 0 20C0 31.0457 8.95431 40 20 40C31.0457 40 40 31.0457 40 20C40 8.95431 31.0457 0 20 0ZM22.0846 20.8785V31.7596H17.5826V20.8789H15.3333V17.1293H17.5826V14.878C17.5826 11.819 18.8526 10 22.461 10H25.4651V13.7501H23.5873C22.1827 13.7501 22.0897 14.2741 22.0897 15.2521L22.0846 17.1288H25.4863L25.0883 20.8785H22.0846Z" fill="inherit"/>
  </symbol>
  <symbol id="instagram" viewBox="0 0 40 40">
    <path fill-rule="evenodd" clip-rule="evenodd" d="M20 0C8.95431 0 0 8.95431 0 20C0 31.0457 8.95431 40 20 40C31.0457 40 40 31.0457 40 20C40 8.95431 31.0457 0 20 0ZM15.6027 9.39778C16.7405 9.346 17.1041 9.33333 20.001 9.33333H19.9977C22.8955 9.33333 23.2577 9.346 24.3955 9.39778C25.5311 9.44978 26.3066 9.62956 26.9866 9.89334C27.6889 10.1656 28.2822 10.53 28.8755 11.1234C29.4689 11.7162 29.8333 12.3114 30.1067 13.0129C30.3689 13.6912 30.5489 14.4663 30.6022 15.6018C30.6533 16.7396 30.6667 17.1032 30.6667 20.0001C30.6667 22.897 30.6533 23.2597 30.6022 24.3975C30.5489 25.5326 30.3689 26.308 30.1067 26.9864C29.8333 27.6877 29.4689 28.2829 28.8755 28.8758C28.2829 29.4691 27.6886 29.8344 26.9873 30.1069C26.3086 30.3707 25.5326 30.5504 24.397 30.6024C23.2593 30.6542 22.8968 30.6669 19.9997 30.6669C17.103 30.6669 16.7396 30.6542 15.6018 30.6024C14.4665 30.5504 13.6912 30.3707 13.0125 30.1069C12.3114 29.8344 11.7162 29.4691 11.1236 28.8758C10.5305 28.2829 10.166 27.6877 9.89334 26.9862C9.62978 26.308 9.45 25.5328 9.39778 24.3973C9.34622 23.2595 9.33333 22.897 9.33333 20.0001C9.33333 17.1032 9.34667 16.7394 9.39756 15.6016C9.44867 14.4665 9.62867 13.6912 9.89312 13.0127C10.1665 12.3114 10.5309 11.7162 11.1242 11.1234C11.7171 10.5302 12.3123 10.1658 13.0138 9.89334C13.692 9.62956 14.4672 9.44978 15.6027 9.39778Z" fill="inherit"/>
    <path fill-rule="evenodd" clip-rule="evenodd" d="M19.0442 11.2556C19.23 11.2553 19.4299 11.2554 19.6456 11.2555L20.0011 11.2556C22.8492 11.2556 23.1867 11.2658 24.3114 11.3169C25.3514 11.3645 25.9159 11.5383 26.2919 11.6843C26.7896 11.8776 27.1445 12.1087 27.5176 12.4821C27.891 12.8554 28.1221 13.211 28.3159 13.7087C28.4619 14.0843 28.6359 14.6487 28.6832 15.6888C28.7343 16.8132 28.7454 17.151 28.7454 19.9977C28.7454 22.8444 28.7343 23.1822 28.6832 24.3066C28.6357 25.3466 28.4619 25.9111 28.3159 26.2866C28.1225 26.7844 27.891 27.1389 27.5176 27.512C27.1443 27.8853 26.7899 28.1164 26.2919 28.3098C25.9163 28.4564 25.3514 28.6298 24.3114 28.6773C23.1869 28.7284 22.8492 28.7396 20.0011 28.7396C17.1529 28.7396 16.8153 28.7284 15.6909 28.6773C14.6508 28.6293 14.0864 28.4556 13.7102 28.3096C13.2124 28.1162 12.8568 27.8851 12.4835 27.5118C12.1102 27.1384 11.879 26.7838 11.6853 26.2858C11.5393 25.9102 11.3653 25.3457 11.3179 24.3057C11.2668 23.1813 11.2566 22.8435 11.2566 19.995C11.2566 17.1465 11.2668 16.8105 11.3179 15.6861C11.3655 14.6461 11.5393 14.0816 11.6853 13.7056C11.8786 13.2078 12.1102 12.8523 12.4835 12.4789C12.8568 12.1056 13.2124 11.8745 13.7102 11.6807C14.0862 11.534 14.6508 11.3607 15.6909 11.3129C16.6749 11.2685 17.0562 11.2552 19.0442 11.2529V11.2556ZM25.6949 13.0266C24.9882 13.0266 24.4149 13.5993 24.4149 14.3062C24.4149 15.0129 24.9882 15.5862 25.6949 15.5862C26.4016 15.5862 26.9749 15.0129 26.9749 14.3062C26.9749 13.5995 26.4016 13.0262 25.6949 13.0262V13.0266ZM14.5233 20.0001C14.5233 16.9751 16.9758 14.5224 20.0009 14.5223C23.026 14.5223 25.4781 16.975 25.4781 20.0001C25.4781 23.0253 23.0263 25.4769 20.0011 25.4769C16.976 25.4769 14.5233 23.0253 14.5233 20.0001Z" fill="inherit"/>
    <path fill-rule="evenodd" clip-rule="evenodd" d="M20.0011 16.4443C21.9647 16.4443 23.5567 18.0361 23.5567 19.9999C23.5567 21.9635 21.9647 23.5555 20.0011 23.5555C18.0374 23.5555 16.4456 21.9635 16.4456 19.9999C16.4456 18.0361 18.0374 16.4443 20.0011 16.4443V16.4443Z" fill="inherit"/>
  </symbol>
  <symbol id="youtube" width="40" height="40" viewBox="0 0 40 40">
    <path fill-rule="evenodd" clip-rule="evenodd" d="M20 0C8.9543 0 0 8.9543 0 20C0 31.0457 8.9543 40 20 40C31.0457 40 40 31.0457 40 20C40 8.9543 31.0457 0 20 0ZM28.3347 13.1244C29.2526 13.3763 29.9755 14.1185 30.2208 15.061C30.6667 16.7692 30.6667 20.3333 30.6667 20.3333C30.6667 20.3333 30.6667 23.8973 30.2208 25.6056C29.9755 26.5482 29.2526 27.2903 28.3347 27.5423C26.6712 28 20 28 20 28C20 28 13.3288 28 11.6652 27.5423C10.7473 27.2903 10.0244 26.5482 9.77903 25.6056C9.33333 23.8973 9.33333 20.3333 9.33333 20.3333C9.33333 20.3333 9.33333 16.7692 9.77903 15.061C10.0244 14.1185 10.7473 13.3763 11.6652 13.1244C13.3288 12.6667 20 12.6667 20 12.6667C20 12.6667 26.6712 12.6667 28.3347 13.1244Z" fill="inherit"/>
    <path fill-rule="evenodd" clip-rule="evenodd" d="M18 24.0002V17.3335L23.3333 20.667L18 24.0002Z" fill="inherit"/>
  </symbol>
  <symbol id="twitter" viewBox="0 0 40 40">
    <path fill-rule="evenodd" clip-rule="evenodd" d="M20 0C8.9543 0 0 8.9543 0 20C0 31.0457 8.9543 40 20 40C31.0457 40 40 31.0457 40 20C40 8.9543 31.0457 0 20 0ZM19.443 16.9483L19.401 16.2563C19.2751 14.4626 20.3803 12.8243 22.129 12.1887C22.7725 11.9627 23.8637 11.9345 24.5772 12.1322C24.8569 12.217 25.3885 12.4994 25.7663 12.7537L26.4518 13.2197L27.2072 12.9796C27.6269 12.8525 28.1865 12.6407 28.4383 12.4994C28.6761 12.3723 28.8859 12.3017 28.8859 12.3441C28.8859 12.5842 28.3683 13.4033 27.9347 13.8553C27.3471 14.4908 27.515 14.5473 28.7041 14.1236C29.4175 13.8835 29.4315 13.8835 29.2916 14.1519C29.2077 14.2931 28.774 14.7874 28.3124 15.2394C27.529 16.0162 27.487 16.1009 27.487 16.7506C27.487 17.7533 27.0113 19.8436 26.5357 20.9876C25.6543 23.1343 23.7658 25.3517 21.8772 26.4674C19.2191 28.0351 15.6798 28.4306 12.7 27.5126C11.7067 27.2019 10 26.411 10 26.2697C10 26.2274 10.5176 26.1709 11.1471 26.1567C12.4622 26.1285 13.7772 25.7613 14.8964 25.1116L15.6518 24.6597L14.7844 24.3631C13.5534 23.9394 12.4482 22.9649 12.1684 22.0468C12.0844 21.7502 12.1124 21.7361 12.8958 21.7361L13.7072 21.722L13.0218 21.3972C12.2104 20.9876 11.4689 20.2955 11.1052 19.5894C10.8394 19.0809 10.5036 17.7957 10.6016 17.6968C10.6295 17.6545 10.9233 17.7392 11.2591 17.8522C12.2243 18.2053 12.3503 18.1205 11.7907 17.5274C10.7414 16.454 10.4197 14.858 10.9233 13.3468L11.1611 12.6689L12.0844 13.5869C13.973 15.4371 16.1974 16.5387 18.7435 16.8636L19.443 16.9483Z" fill="inherit"/>
  </symbol>
  <symbol id="pixel-logo" viewBox="0 0 120 19">
    <path d="M11.7812 10.1185C10.7404 10.9933 9.28202 11.4176 7.35184 11.4176H3.66305V17.8381H0V0H7.57202C9.32777 0 10.7146 0.450355 11.7555 1.37416C12.7964 2.29796 13.314 3.72409 13.314 5.64676C13.314 7.74552 12.7935 9.24382 11.7812 10.1185ZM8.95889 3.69811C8.48993 3.29971 7.84654 3.09763 7.00298 3.09763H3.66305V8.346H6.9801C7.8208 8.346 8.4642 8.12082 8.93602 7.69645C9.40498 7.27207 9.62802 6.59654 9.62802 5.67274C9.6509 4.74605 9.42786 4.0734 8.95889 3.69811Z" />
    <path d="M20.6142 17.815H16.9512V0H20.6142V17.815Z" />
    <path d="M27.8662 17.815H23.5854L29.2788 8.74439L23.8571 0H28.2636L31.432 5.79687L34.649 0H38.9068L33.5109 8.59427L39.2528 17.815H34.7719L31.432 11.7439L27.8662 17.815Z" />
    <path d="M55.4606 3.14671H46.1043V6.91987H54.6914V10.0175H46.1043V14.5903H55.881V17.789H42.4927V0H55.4349V3.14671H55.4606Z" />
    <path d="M59.7441 0H63.4329V14.6163H72.2431V17.815H59.7441V0Z" />
    <path d="M76.8697 13.4182C77.0184 14.6683 77.5874 15.517 78.5768 15.9905C79.0972 16.2416 79.6892 16.3657 80.3583 16.3657C81.6451 16.3657 82.5859 15.9674 83.2035 15.1417C83.8212 14.3161 84.1186 13.4182 84.1186 12.4194C84.1186 11.2213 83.7468 10.2715 83.0291 9.62198C82.2856 8.97243 81.4192 8.62311 80.4069 8.62311C79.6634 8.62311 79.02 8.77323 78.5025 9.04748C77.982 9.34772 77.5131 9.74611 77.1413 10.2455L75.2855 10.1445L76.598 0.825623H85.5083V2.92439H78.2079L77.4644 7.7455C77.8591 7.44526 78.2308 7.22008 78.6025 7.04687C79.2459 6.77261 79.9894 6.64848 80.8301 6.64848C82.4143 6.64848 83.7268 7.14791 84.8392 8.17276C85.9287 9.1976 86.472 10.4967 86.472 12.0701C86.472 13.7185 85.9773 15.1446 84.9621 16.3917C83.947 17.6418 82.3628 18.2653 80.161 18.2653C78.7741 18.2653 77.5388 17.8669 76.4493 17.0673C75.3856 16.2676 74.765 15.0436 74.6421 13.4182H76.8697Z" />
    <path d="M99.909 3.27369C100.675 4.69693 101.047 6.64558 101.047 9.14563C101.047 11.4956 100.701 13.4442 100.006 14.9916C98.9911 17.1914 97.3583 18.3144 95.0822 18.3144C93.029 18.3144 91.4935 17.4137 90.4783 15.6151C89.6376 14.1169 89.2173 12.0931 89.2173 9.54402C89.2173 7.56939 89.4661 5.89499 89.9608 4.47175C90.9273 1.82447 92.6344 0.49939 95.1079 0.49939C97.3355 0.49939 98.9197 1.42319 99.909 3.27369ZM97.7558 14.8155C98.425 13.8166 98.7452 11.943 98.7452 9.2178C98.7452 7.24317 98.4964 5.62073 98.0275 4.37071C97.5585 3.09759 96.6177 2.47114 95.2309 2.47114C93.9698 2.47114 93.029 3.07161 92.4343 4.26967C91.8395 5.46773 91.5421 7.24317 91.5421 9.59021C91.5421 11.3628 91.7394 12.7629 92.1111 13.8368C92.6802 15.4852 93.6696 16.2849 95.0564 16.2849C96.1974 16.3167 97.0896 15.8143 97.7558 14.8155Z" />
    <path d="M114.264 1.94869C115.007 2.94755 115.402 3.99838 115.402 5.04632H113.274C113.151 4.37079 112.951 3.82228 112.656 3.44698C112.136 2.72237 111.344 2.34708 110.306 2.34708C109.094 2.34708 108.153 2.92157 107.435 4.04745C106.717 5.17334 106.323 6.76979 106.248 8.86856C106.743 8.14395 107.361 7.59544 108.13 7.22015C108.822 6.89393 109.591 6.7467 110.432 6.7467C111.867 6.7467 113.128 7.22014 114.195 8.14684C115.259 9.07064 115.805 10.4448 115.805 12.2953C115.805 13.8687 115.31 15.2688 114.295 16.4669C113.28 17.6909 111.844 18.2914 109.963 18.2914C108.353 18.2914 106.969 17.6678 105.805 16.4438C104.641 15.2197 104.049 13.1469 104.049 10.2225C104.049 8.07466 104.298 6.25015 104.816 4.75185C105.805 1.8794 107.638 0.453278 110.286 0.453278C112.185 0.424409 113.523 0.949822 114.264 1.94869ZM112.656 15.1908C113.226 14.4172 113.497 13.5164 113.497 12.4685C113.497 11.5938 113.248 10.745 112.754 9.94537C112.259 9.1457 111.344 8.74731 110.006 8.74731C109.091 8.74731 108.273 9.04755 107.581 9.67111C106.889 10.2947 106.54 11.2214 106.54 12.4685C106.54 13.5684 106.863 14.4922 107.481 15.2428C108.124 15.9934 108.991 16.3658 110.129 16.3658C111.244 16.3398 112.087 15.9414 112.656 15.1908Z" />
    <path d="M120 2.22009C120 2.47702 119.957 2.70797 119.866 2.91871C119.777 3.12946 119.657 3.30844 119.502 3.45856C119.351 3.60868 119.174 3.72416 118.973 3.80499C118.773 3.88582 118.562 3.92912 118.341 3.92912C118.095 3.92912 117.872 3.88582 117.669 3.79921C117.466 3.71261 117.292 3.59424 117.143 3.44124C116.997 3.28823 116.883 3.10925 116.8 2.8985C116.717 2.69065 116.674 2.46258 116.674 2.22009C116.674 1.96315 116.717 1.7322 116.809 1.52146C116.9 1.31072 117.017 1.13173 117.172 0.98161C117.323 0.831492 117.501 0.716016 117.704 0.635184C117.907 0.554351 118.118 0.511047 118.341 0.511047C118.562 0.511047 118.773 0.551464 118.973 0.635184C119.174 0.718903 119.351 0.834379 119.502 0.98161C119.654 1.13173 119.774 1.31072 119.866 1.52146C119.957 1.7322 120 1.96315 120 2.22009ZM119.637 2.22009C119.637 2.01223 119.602 1.8217 119.537 1.64848C119.471 1.47527 119.379 1.32515 119.262 1.20101C119.145 1.07688 119.008 0.978723 118.85 0.912325C118.693 0.84304 118.524 0.808397 118.344 0.808397C118.161 0.808397 117.99 0.84304 117.83 0.912325C117.672 0.98161 117.532 1.07688 117.415 1.20101C117.298 1.32515 117.203 1.47527 117.138 1.64848C117.072 1.8217 117.037 2.01223 117.037 2.22009C117.037 2.41639 117.069 2.59827 117.129 2.76859C117.189 2.93892 117.275 3.08904 117.389 3.21606C117.504 3.34309 117.638 3.44413 117.798 3.51919C117.958 3.59425 118.138 3.63177 118.341 3.63177C118.522 3.63177 118.69 3.59713 118.848 3.52785C119.005 3.45856 119.142 3.36329 119.259 3.23916C119.377 3.11502 119.468 2.9649 119.534 2.79458C119.605 2.62136 119.637 2.43083 119.637 2.22009ZM118.01 3.19874H117.701V1.30494H118.413C118.639 1.30494 118.81 1.34825 118.925 1.43197C119.039 1.51857 119.096 1.65714 119.096 1.84768C119.096 2.018 119.051 2.14214 118.956 2.22297C118.862 2.30092 118.747 2.35 118.607 2.36443L119.134 3.19585H118.785L118.301 2.38753H118.013V3.19874H118.01ZM118.353 2.12482C118.41 2.12482 118.464 2.12193 118.519 2.11904C118.57 2.11327 118.619 2.10172 118.656 2.08152C118.696 2.06131 118.727 2.02955 118.75 1.99202C118.776 1.95449 118.788 1.89964 118.788 1.83036C118.788 1.77262 118.773 1.72643 118.75 1.69467C118.725 1.66003 118.693 1.63405 118.653 1.61673C118.613 1.5994 118.57 1.58786 118.522 1.58208C118.473 1.57631 118.427 1.57631 118.381 1.57631H118.01V2.13059H118.353V2.12482Z" />
  </symbol>
  <symbol id="hamburguer" viewBox="0 0 24 22">
    <rect width="24" height="4.36364"/>
    <rect y="8.72728" width="17.4545" height="4.36364"/>
    <rect y="17.4545" width="24" height="4.36364"/>
  </symbol>
  <symbol id="diagonal-stripes" viewBox="0 0 370 229">
    <path d="M75.6367 1L1.0001 228.099" stroke="#E12A5C" stroke-width="2"/>
    <path d="M98 1L23.3634 228.099" stroke="#E12A5C" stroke-width="2"/>
    <path d="M120 1L45.3634 228.099" stroke="#E12A5C" stroke-width="2"/>
    <path d="M142 1L67.3634 228.099" stroke="#E12A5C" stroke-width="2"/>
    <path d="M164 1L89.3634 228.099" stroke="#E12A5C" stroke-width="2"/>
    <path d="M186 1L111.363 228.099" stroke="#E12A5C" stroke-width="2"/>
    <path d="M208 1L133.363 228.099" stroke="#E12A5C" stroke-width="2"/>
    <path d="M230 1L155.363 228.099" stroke="#E12A5C" stroke-width="2"/>
    <path d="M252 1L177.363 228.099" stroke="#E12A5C" stroke-width="2"/>
    <path d="M296 1L221.363 228.099" stroke="#E12A5C" stroke-width="2"/>
    <path d="M340 1L265.363 228.099" stroke="#E12A5C" stroke-width="2"/>
    <path d="M384 1L309.363 228.099" stroke="#E12A5C" stroke-width="2"/>
    <path d="M428 1L353.363 228.099" stroke="#E12A5C" stroke-width="2"/>
    <path d="M274 1L199.363 228.099" stroke="#E12A5C" stroke-width="2"/>
    <path d="M318 1L243.363 228.099" stroke="#E12A5C" stroke-width="2"/>
    <path d="M362 1L287.363 228.099" stroke="#E12A5C" stroke-width="2"/>
    <path d="M406 1L331.363 228.099" stroke="#E12A5C" stroke-width="2"/>
  </symbol>
  <symbol id="hero-slider-down-arrow"  viewBox="0 0 45 103">
    <rect x="22.5" y="10" width="1" height="5"/>
    <rect x="22.5" y="20" width="1" height="5"/>
    <rect x="22.5" width="1" height="5"/>
    <rect x="22.5" y="30" width="1" height="5"/>
    <rect x="22.5" y="50" width="1" height="2"/>
    <rect x="22.5" y="40" width="1" height="5"/>
    <path d="M22.5,58C10.1,58,0,68.1,0,80.5S10.1,103,22.5,103C34.9,103,45,92.9,45,80.5S34.9,58,22.5,58z M22.5,102
      C10.6,102,1,92.4,1,80.5S10.6,59,22.5,59C34.4,59,44,68.6,44,80.5S34.4,102,22.5,102z"/>
    <polygon points="22.9,84.6 11.7,74.3 10.3,75.7 22.9,87.4 34.7,75.7 33.3,74.3 	"/>
  </symbol>
  <symbol id="view-grid" viewBox="0 0 23 23">
    <rect x="12.6895" width="10.3103" height="10.3103" />
    <rect x="12.6895" y="12.6896" width="10.3103" height="10.3103" />
    <rect width="10.3103" height="10.3103" />
    <rect y="12.6896" width="10.3103" height="10.3103" />
  </symbol>
  <symbol id="view-list" viewBox="0 0 21 22">
    <rect y="0.5" class="st0" width="21" height="3"/>
    <rect y="9.5" class="st0" width="21" height="3"/>
    <rect y="18.5" class="st0" width="21" height="3"/>
  </symbol>
  <symbol id="facebook-variation" viewBox="0 0 10.2 21.8">
    <path d="M6.8,10.9v10.9H2.2V10.9H0V7.1h2.2V4.9C2.2,1.8,3.5,0,7.1,0h3v3.8H8.3c-1.4,0-1.5,0.5-1.5,1.5l0,1.9h3.4
      l-0.4,3.7H6.8z"/>
  </symbol>
  <symbol id="linked-in-variation" viewBox="0 0 21.1 20.2">
    <path d="M0.3,6.6h4.5v13.6H0.3V6.6z M5.1,2.4C5.1,1,4.1,0,2.6,0S0,1,0,2.4c0,1.3,1,2.4,2.5,2.4h0
      C4.1,4.7,5.1,3.7,5.1,2.4z M15.9,6.2c3,0,5.2,1.9,5.2,6.1l0,7.8h-4.5v-7.3c0-1.8-0.7-3.1-2.3-3.1c-1.3,0-2,0.8-2.3,1.7
      c-0.1,0.3-0.1,0.7-0.1,1.1v7.6H7.3c0,0,0.1-12.3,0-13.6h4.5v1.9C12.4,7.6,13.5,6.2,15.9,6.2z"/>
  </symbol>
  <symbol id="twitter-variation" viewBox="0 0 19.4 16">
    <path d="M9.4,4.9l0-0.7c-0.1-1.8,1-3.4,2.7-4.1c0.6-0.2,1.7-0.3,2.4-0.1c0.3,0.1,0.8,0.4,1.2,0.6l0.7,0.5L17.2,1
      c0.4-0.1,1-0.3,1.2-0.5c0.2-0.1,0.4-0.2,0.4-0.2c0,0.2-0.5,1.1-1,1.5c-0.6,0.6-0.4,0.7,0.8,0.3c0.7-0.2,0.7-0.2,0.6,0
      c-0.1,0.1-0.5,0.6-1,1.1c-0.8,0.8-0.8,0.9-0.8,1.5c0,1-0.5,3.1-1,4.2c-0.9,2.1-2.8,4.4-4.7,5.5c-2.7,1.6-6.2,2-9.2,1
      c-1-0.3-2.7-1.1-2.7-1.2c0,0,0.5-0.1,1.1-0.1c1.3,0,2.6-0.4,3.7-1l0.8-0.5l-0.9-0.3C3.6,11.9,2.4,11,2.2,10C2.1,9.8,2.1,9.7,2.9,9.7
      l0.8,0L3,9.4C2.2,9,1.5,8.3,1.1,7.6C0.8,7.1,0.5,5.8,0.6,5.7c0,0,0.3,0,0.7,0.2c1,0.4,1.1,0.3,0.5-0.3c-1-1.1-1.4-2.7-0.9-4.2
      l0.2-0.7l0.9,0.9c1.9,1.9,4.1,3,6.7,3.3L9.4,4.9z"/>
  </symbol>
</svg>
